<svg xmlns="http://www.w3.org/2000/svg" viewBox="0 0 556.17 940.23"><defs><style>.cls-1{fill:#1f2738;}.cls-2{fill:#131923;}.cls-3{fill:#e6b9a2;}.cls-4{fill:#d6a48e;}.cls-5{fill:#27140d;}.cls-6{fill:#fff;}.cls-7{fill:#f4f2f2;}.cls-8{fill:#d5d4db;}</style></defs><title>Asset 1</title><g id="Layer_2" data-name="Layer 2"><g id="Object"><path class="cls-1" d="M155.69,708.69s-8.46,59.18-6.77,76.51,32.13,120,33.82,132.29,3.38,22.74,3.38,22.74H291.79s2.11-53.59,2.54-73.46,3.38-66.36,4.65-68.89,9.29,23.67,11,49,18.18,93.32,18.18,93.32H446.07s.84-129.25,0-141.51-3.38-21.13-2.54-27.9,5.07-41,5.07-44.38S155.69,708.69,155.69,708.69Z"/><path class="cls-2" d="M238.85,940.23h52.94s2.11-53.59,2.54-73.46,3.38-66.36,4.65-68.89c1.17-2.36,8.19,20.1,10.53,43.64v0s.83-35,3.64-35.33,10.55,4,9.5,1.13-6.12-7.53-6.12-7.53,22.27-8.81,22.27-9.94-13.53-4-14.94-3.66-15.78,2-20.57,2.81S272,787.85,272,787.85s7.89,9.72,9.58,11.91-2.53,10.63-2.53,12.32S261.3,831,257.36,832.65s-44.8-29.87-44.8-29.87,42.26,39.58,42.55,43.18-2.82,53.47-7.33,65.31C245.31,917.76,241.65,930.25,238.85,940.23Z"/><path class="cls-2" d="M446.07,940.23s.84-129.25,0-141.51-3.38-21.13-2.54-27.9,5.07-41,5.07-44.38c0-2.56-167.86-11.41-249.43-15.57l-19,20.93s38.89,22.23,49.31,27,12.4,4.51,14.66,6.48,23.38,17.19,19.16,12.4-8.74-10.42-9.3-11.83,13,1.41,33.25,2.82,54.1-4.23,50.44-.85-18.32,11.27-8.74,9.58,33.82-13.81,37.48-13.81,47.34-4.51,47.34-4.51-3.94,3.67,0,7,5.64,10,6.76,12.48,6.77,21,6.77,24.71v6.77l11.55,9.58-11.55-2s-17.76,12.39-19.16,22.82-2.54,15.22-4.51,16.91-15.22-4.23-15.22-4.23l33.25,28.46s-17.19-11-19.16-10.14-4.79,14.65-4,27.89-7.32,40.8-7.32,40.8Z"/><path class="cls-3" d="M66.78,363.22S14.09,435.36,8.17,446.35,0,477.06,0,477.06s1.69,18.53,9.58,21.38,27.33,8.77,36.91,12.44,30.44,11.83,67.63,17.75,69,11.83,74.68,15.22,13.52-1.7,13.52-1.7-2.53-16.06-3.66-17.47-7.89-26.24-7.89-26.24-29.87-4.75-45.09-9S78.34,465.79,64,462.69c0,0,33.25-31.84,40.29-40.58s29-34.09,29-34.09Z"/><path class="cls-4" d="M156.48,524.38c-18-4-49-11.27-64.81-14.09S43,509.15,9.58,498.44c7.89,2.86,27.33,8.77,36.91,12.44s30.44,11.83,67.63,17.75,69,11.83,74.68,15.22,13.52-1.7,13.52-1.7-2.53-16.06-3.66-17.47c-.45-.56-1.79-4.84-3.25-9.78l-4.71-2.33S174.51,528.32,156.48,524.38Z"/><path class="cls-4" d="M64,462.69s33.25-31.84,40.29-40.58,29-34.09,29-34.09l-27.55-10.28-4.57,2.36H86s6.77,27.21,0,36.71-46.21,53.46-46.21,53.46,15.6-1.69,20.48,0,20.1,8.46,24,8.46h29.05C94,472,72.43,464.52,64,462.69Z"/><path class="cls-3" d="M189.71,567.94,191,580.41s2.33,9.72,2.33,11.83-1.7,6.27-1.7,6.27,15.64-4.79,16.07-5.63,4.43-15.22,1.26-19S189.71,567.94,189.71,567.94Z"/><path class="cls-3" d="M554.36,381.23a74.87,74.87,0,0,0-6-8.84c-8.46-10.7-79.43-64.12-79.43-64.12l-46.77,38.89,65.39,53.65s-19.94,24.94-31.21,49.74c-8.91,19.6-41.44,91.86-41.44,91.86l8.19,17.73,5.07,27.61S531.8,431.18,533.49,429.49c1.11-1.11,13.2-25.69,19.34-32.66A13.43,13.43,0,0,0,554.36,381.23Z"/><path class="cls-4" d="M471.24,337c2.11-10.15-3-22.06-3-22.06l-4-2.84-42.18,35.07,65.39,53.65s-11.2-25.36-12.7-34.23S469.12,347.13,471.24,337Z"/><path class="cls-4" d="M552.83,396.83a13.43,13.43,0,0,0,1.53-15.6c-.35-.6-.73-1.24-1.14-1.89-6.93,9.14-24.57,32.51-35.91,48.52-14.37,20.29-63.61,99.93-72,104.07-6.3,3.12-14.34-10.54-17.91-17.44-7.09,15.72-12.58,27.92-12.58,27.92l8.19,17.73,5.07,27.61S531.8,431.18,533.49,429.49C534.6,428.38,546.69,403.8,552.83,396.83Z"/><path class="cls-5" d="M247.31,250.6s-40.58,1.9-60.87-28-13.95-68.81-13.95-68.81-6.76,38.92,1.27,71.18c0,0-9.3-15.66-10.14-48.4S175,121.05,180.1,96.85s14.14-77.52,43.44-77c0,0,18.7-23.64,61-19.37S352.74,29.8,363.31,61.6s-6.53,71.79,2.77,112.12,6.76,76.4-8,92.54a89.26,89.26,0,0,0-2.54-42.71c-7.18-22.3-8-36.54-8-36.54s.43,30.37,1.27,43.18S323,255.34,309,255.34H282.39s-7.18-19.45-8-39.38c0,0-.42,26.1,3.38,39.38,0,0-13.52-1.42-19.44-19.45s-.42-31.8-.42-31.8S242.66,234.94,247.31,250.6Z"/><path class="cls-3" d="M221.5,177.08s-.56,63.37-2.82,69-12.41,9.77-12.41,9.77,20,30.43,49.46,38.32,46.34,0,46.34,0l20.86-25.36,2.25-21.41s-23.11-13-22-21.42,2.26-37.2,2.26-37.2Z"/><path class="cls-4" d="M303.2,226c1.13-8.45,2.26-37.2,2.26-37.2l-86.2-9.32c4.06,14.54,9.75,31.8,15.45,38.77,10.67,13,35,13.34,40.41,20.31s20.47,2.52,31.91,6.56a114.91,114.91,0,0,0,17.92,4.5l.23-2.2S302.07,234.44,303.2,226Z"/><path class="cls-6" d="M210.4,253s26,29.61,49.27,32.15,41-7.19,48.18-14.38,12-26.62,12-26.62,9.52-.43,15.86,0,44.8-3,49-2.12,41.42,24.1,54.52,33,35.51,30.43,35.51,30.43-7.33,30.72-23.67,40.86-22.82,11.84-22.82,11.84l-21.14-9.86s-6.76,8.17-6.76,9.86,7.89,44.24,8.45,58.05,3.1,57.2,6.48,67.34,35.58,171.08,39.38,206.58-1.26,53.26-1.26,53.26S321.6,759.86,273.41,753.52s-110-16.93-116.17-29.33-6.2-10.71-4.51-17.47,2.82-47.91,16.91-72.7,12.39-21.42,14.08-24.8,3.39-4.51,7.89-10.71,11.28-6.2,5.08-17.47-14.09-15.78-11.27-28.74,6.19-34.38,6.19-34.38-11.27-67.06-18-86.79-24.23-32.69-25.92-36.63a23.88,23.88,0,0,0-5.64-7.33l-14.09,15.22a117.66,117.66,0,0,1-42.27-16.34C64.25,372.52,60.3,362.94,60.3,362.94s31.4-41.65,37.2-49.6c7.87-10.79,27-30.17,30.94-33s39.5-12.09,48-16.6S210.4,253,210.4,253Z"/><path class="cls-3" d="M333.36,141.64c-1.55,10.87-7.89,35.79-11.83,42.27S297,210.4,289.41,213.5s-21.42.28-26.77-1.69-28.75-19.16-35.23-23.39-12.4-14.37-13.8-22.54,6-94.08,6-94.08l124.55,11S335.5,126.7,333.36,141.64Z"/><path class="cls-5" d="M363.31,61.6C352.74,29.8,326.77,4.79,284.5.52s-61,19.37-61,19.37c-29.3-.56-38.37,52.76-43.44,77-1.52,7.25-3.68,14.38-5.95,21.68.91,18,3.38,36.89,9.38,47.1,13.25,22.55,22.74,30.16,22.74,30.16s-2.17-28.18-1.32-43.4c0,0,8.48,49.62,22.82,62.49,0,0-14.34-57.67-3.38-94.33,4.45-14.88,17.19-26.21,19.44-47.34,0,0,38.33,34.09,54.39,38.6s20.29,4,20.29,4l-7.33-7.89s14.37,8.73,17.47,9.3,6.66,6.08,6.66,6.08l-5.25,55.91s19.16-10.34,32.12-46c.62-1.69,1.21-3.38,1.79-5.07C365.81,104,369.84,81.24,363.31,61.6Z"/><path class="cls-7" d="M387.12,310.78c-2.53,8.88-24.51,40.58-22.82,42.27s21.13-19.87,19.86-16.06-8,15.22-6.34,18.6,1.69,7.18.43,12.25-14.37,23.65-9.73,22.4,21.67-24.09,23.73-25.35,8,8,8.82,12.25-6.34,23.25-14.79,35.51a77.52,77.52,0,0,1-40.58,29.58c-18.6,5.92-20.71,5.16-26.63,11.88s-13.95,16.45-13.95,16.45,25.79-43.12,27.9-58.76,5.07-39.31,1.27-35.08-5.07,25.66-12.68,40.09-18.6,14.44-21.14,21.62-9.3,19.87-14.79,25.79-1.27-6.35,4.23-26.21,11.41-41,8.87-36.35-8.87,26.2-18.17,36.35-11.42,9.81-17.33,16.1-11.84-2.91-22,0-7.19,7.15-18.18,9.26-17.93-6.34-20.8-1.27,8.54,28.74,14.46,33.39,28.32,4.23,34.24,0a105.9,105.9,0,0,0,11-9.17s-2.11,10.86-11.41,16.78S234.11,509.44,229,512s13.53,8,24.94,0,33.39-20.71,38.46-21.56,4.23,4.05,14.37-4.1,18.37-14.07,18.37-14.07-25.13,33-42.88,46.07-26.21,26.63-49,31.28-34.66,8.76-38.47,6.28a60.09,60.09,0,0,1-8.55-7.57c-.28,1.39-.56,2.73-.83,4-2.82,13,5.07,17.47,11.27,28.74,5.41,9.84.95,11.09-3.27,15.37,3.31,1.47,16.88-.4,20.83-3.28,4.65-3.38,35.5-3.77,51.56-13.3S362.18,468,362.18,473.94,352,533.23,348.66,545s9.3-2.63,16.91-14.45,4.22,33.46-3.39,52.67S325,668,304.7,677s-43.11,7-63.4,0-53.3-24.73-51.59-19.66,49.9,38.91,71,47.35,48.57,5.06,64.44,9.29,31.93,2.26,43.77-12S396,655.69,396,655.69s12.81,27,5.14,38.89-24.58,23.67-36.42,27.89-59.17,6.77-60,9.3,59.95,11.83,105.67,0c0,0-6.76,10.25-44.8,20.34h0c45.5-3.43,87.91-8.73,87.91-8.73s5.07-17.75,1.26-53.26-36-196.43-39.38-206.58-5.91-53.54-6.48-67.34-8.45-56.36-8.45-58.05,6.76-9.86,6.76-9.86l21.14,9.86s6.48-1.69,22.82-11.84a35.54,35.54,0,0,0,9.34-8.93l-.52-.11s-33.25-18-39.45-25.08-20.28-33-22-35.22,42,31.3,42,31.3S403,274.43,400.23,269.36c-2.19-3.93-9.77-19.5-13.08-26.34a12.75,12.75,0,0,0-2.37-1S389.66,301.91,387.12,310.78Z"/><path class="cls-7" d="M173.58,431.13c2.51,7.32,5.64,21.16,8.58,35.67,1.47-4.16,1.21-15.13.81-18.79-.57-5.07,3.94-11.83,4.22-14.37s1.13-8.73,0-14.65-5.07-18.32-5.07-22.83-2.25-6.2-3.94-8.17,3.1-5.63,6.65-5.63,3.77-2.54,2.36-8.18,18.6-2.81,17.19-8.17-43.67-10.14-47.62-11.27-2-7.89-3.66-20.57-4.51-17.47-7.33-27.05-12.68-23.95-12.68-23.95c-7.41-12.13,4.79,31.56,4.79,33.81s.57,9,.85,14.65-2,9.3-8.74,13.81-25.64,3.67-27.61,3.67-2.54,2.53,7.32,5.35,22.55,4.23,22.55,5.92S128.58,377.57,122.1,388c-3.25,5.23-8.51,8-12.95,9.42a103.18,103.18,0,0,0,18.78,5L142,387.17a23.88,23.88,0,0,1,5.64,7.33C149.35,398.44,166.82,411.41,173.58,431.13Z"/><path class="cls-8" d="M218.68,481.33a90.87,90.87,0,0,0,24.73,2.75c13.53-.42,23.67-1.9,25.36-2.75s18-8,16.28-6.55-20.93,23.67-39.31,32.55c0,0,27.68-10.57,40.57-24.52s40.84-62.41,44.6-73.12,3.15-.3,1.56,4.88-26.08,55.14-28.19,58.94-3.81,4-2.12,3.81,20.72-16.06,25.15-17.33,13.74-7.19,25.36-9.72,33-21.56,41-35.51l8-13.95A213.19,213.19,0,0,1,386.49,431c-8.67,13.74-40.79,29.59-44.81,33.61s-27.26,36.77-34.44,42.69-5.92,1.9-10.78,5.07S277,527,277,527s40.13-41.63,45.64-48.61,7-10.14,7-10.14-10.15,6.76-17.75,10.14a131.09,131.09,0,0,0-15,7.82c-4,2.33-17.75,4.24-22.4,10.89s-30.22,13.84-31.28,13.84-1.27,2.33-1.06,0,4.44-8.45,12.68-13.84,14.9-12.15,12.74-11.94-17.6.42-24.15,3-6.55,5.7-11.41,2.74S218.68,481.33,218.68,481.33Z"/><path class="cls-8" d="M353.73,454.11s13.95-6.72,17.75,0-4.65,38.64,0,43,6.34-5.17,10.15,0,11.09,32.23,10.62,55.05-27.11,107.21-38.52,116-17.33,13-21.13,20.58S304.28,697.11,295,695s20.71,11,38.88,3.38,20.72-15.83,34.66-32.64,18.75-34.57,23.75-41.75,10.91-23.25,13.87-22.83,5.5-16,7.61-24.28c0,0-1.27,14.75,0,21.63s-.84,13.64,3.38,24.63,16.06,31.93,17.76,42.6,2.53-21.89-7.19-65.42-27.47-96-27.9-116.66-.42-43.54-1.27-45.23-.21-14.37,1.06-18.17-.48-13.36-.48-13.36S381.63,443,353.73,454.11Z"/><path class="cls-8" d="M350.35,731.21s41.14-4.51,54.67-13,5.07-10.14,15.78-17.47,15.06-16.91,15.13-12.4-6.12,25.36-16.26,31S373.92,734.24,350.35,731.21Z"/><path class="cls-8" d="M392.25,269.78s.89,29.85,0,38.49-10.62,23.44-8.72,23.22,9.12-11,9.12-11,.24,7.83,0,11-2.89,22-4.63,27.68,7.56-17.54,8.4-15.22,2.11,7.82,2.11,7.82,4.65-5.07,7.4-5.07,21.77,8.67,21.77,8.67-18.39-15.22-20.92-21.56-3.84-13.53-1.29-12.89,45.25,13.52,40.6,11.2S403.18,318,400.44,312.47,392.25,269.78,392.25,269.78Z"/><path class="cls-8" d="M157,396.8c-4.86-7-6.34-6.55-5.28-9.51s9.09-3.38,12.26-.85,8.24,11,12.26,14.37A27,27,0,0,1,184.83,415c1.1,5.29,2.92,11.84,2.92,11.84s1.34-16.25-4.78-25-9.51-12.59-13.53-17.66-8.66-7.71-10.35-10.2-4.65-6.71-4.65-6.71,20.92,1.48,28.95.42,14.79-.42,11.84-2.11-31.71-1.78-38.89-5.44-7.82-13.37-8.45-24.15-2.33-28.95-9.3-33.81c0,0,6.55,30.85,6.34,40.36s1.27,10.57-1.48,10.57-37.44-1.69-35.08,0,34.44,4.86,35.29,4.65,6.48,15.5-12.26,33.39c-2.66,2.54-3.45,8.08-4.15,11.19l.68.11L142,387.17a23.88,23.88,0,0,1,5.64,7.33c1.2,2.81,10.45,10.23,18.1,21.41C163.24,409.28,159.73,400.76,157,396.8Z"/></g></g></svg>