<svg xmlns="http://www.w3.org/2000/svg" xmlns:xlink="http://www.w3.org/1999/xlink" viewBox="0 0 447.59 1474.96"><defs><style>.cls-1{fill:#232558;}.cls-2{fill:url(#linear-gradient);}.cls-3{fill:#fff;}.cls-4{fill:url(#linear-gradient-2);}.cls-5{fill:url(#linear-gradient-3);}.cls-6{fill:#ea5757;}.cls-7{fill:#f6807c;}.cls-8{fill:#fffffd;}.cls-9{fill:#fc9f9f;}.cls-10{fill:url(#linear-gradient-4);}.cls-11{fill:url(#linear-gradient-5);}.cls-12{fill:#e0fcfb;}.cls-13{fill:#a7e7e7;}.cls-14{fill:#bdf2f0;}.cls-15{fill:#b2edeb;}.cls-16{fill:#cbf4f1;}.cls-17{fill:url(#linear-gradient-6);}.cls-18{fill:url(#linear-gradient-7);}.cls-19{fill:#ef6060;}.cls-20{fill:#fff2ec;}.cls-21{fill:url(#linear-gradient-8);}</style><linearGradient id="linear-gradient" y1="803.26" x2="447.59" y2="803.26" gradientUnits="userSpaceOnUse"><stop offset="0" stop-color="#f19971"/><stop offset="0.99" stop-color="#e4794f"/><stop offset="1" stop-color="#e4794f"/></linearGradient><linearGradient id="linear-gradient-2" x1="327.37" y1="542.95" x2="308.26" y2="472.37" gradientTransform="translate(-98.19 -392.29) rotate(-6.27)" xlink:href="#linear-gradient"/><linearGradient id="linear-gradient-3" x1="223.8" y1="353.29" x2="223.8" y2="1047.19" gradientUnits="userSpaceOnUse"><stop offset="0" stop-color="#a7e7e7"/><stop offset="0.59" stop-color="#85d6d6"/><stop offset="1" stop-color="#6bc9c9"/></linearGradient><linearGradient id="linear-gradient-4" x1="173.59" y1="245.8" x2="180.48" y2="322.94" xlink:href="#linear-gradient-3"/><linearGradient id="linear-gradient-5" x1="311.5" y1="230.96" x2="311.5" y2="318.85" xlink:href="#linear-gradient-3"/><linearGradient id="linear-gradient-6" x1="86.04" y1="496.3" x2="269.46" y2="496.3" xlink:href="#linear-gradient"/><linearGradient id="linear-gradient-7" x1="263.18" y1="485.69" x2="402.74" y2="485.69" xlink:href="#linear-gradient"/><linearGradient id="linear-gradient-8" x1="267.64" y1="110.84" x2="267.64" y2="257.85" gradientUnits="userSpaceOnUse"><stop offset="0" stop-color="#2e3372"/><stop offset="1" stop-color="#232558"/></linearGradient></defs><title>Asset 2</title><g id="Layer_2" data-name="Layer 2"><g id="Layer_1-2" data-name="Layer 1"><path class="cls-1" d="M265.45,41.34s-78.31,76.5-77.9,78-26.1,37.5-26.1,39-2.91,39-2.91,39-11.09,21-10.59,22.25,16,16.78,15.5,18.28,208.5,3,208.5,3l-8.66-65-13.84-31.5s-.5-85.5-.5-87.5-41.86-33.5-41.86-33.5Z"/><path class="cls-2" d="M217.75,131.55s5.09,64.6-10.65,77-79.5,21.53-79.5,21.53S138.37,335,152.45,355.65s12.62,83.17,17.49,100.56S198,573,189.71,593.69,15,921.66,5,948.16,2.54,1002,5,1055.82s39.76,233.56,39.76,256.75,2.48,108.49,10.76,123.4,40.37,32.3,53.73,5.79,12.53-61.28,13.36-95.24,28.16-96.07,4.14-105.18-34,5.8-39.76-1.66,1.66-91.1,1.66-143.27-24.85-74.54-5-101S227,834.69,276.67,761.81s37.27,99.39,42.24,160.67-2.48,108.5,0,143.28-2.48,216.16-9.94,231.07-16.56,50.52-19.05,66.26-33.13,97.72-24.84,102.69,60.46,20.71,75.36-5.8,5.8-72,14.08-87,.83-19.87,0-38.92.83-61.29,14.08-101.87S404.21,1113,400.9,1084s-7.45-61.28-3.31-80.33,47.21-231.9,49.69-275-9.94-133.34-38.1-173.1-89.45-77.34-90.28-118.75,8.05-82.88,9-118.5,11.84-98.61,11.84-98.61S281.92,224.31,283,182.9C283.72,156.66,217.75,131.55,217.75,131.55Z"/><path class="cls-3" d="M351,432.84c-.83-41.41,5.78-71.87,6.75-107.49s-17.94-105.62-17.94-105.62-27.43,2.16-44.15-10c1.42-3.81,2.77-8.55,2.13-12.15a3.73,3.73,0,0,0-5.47-2.94c-4.5,2-4.2,9.19-7.49,12.39-3.74,3.63-6,.8-8.3-2.11a4,4,0,0,0-2.88-1.81,3.91,3.91,0,0,0-2.89,1.27,5.83,5.83,0,0,0-1,1.61,10.66,10.66,0,0,0-.71,2.13l-4.37,0c-1.75-.61-2.46-2.86-4.63-3.21a4.34,4.34,0,0,0-3.3.71,7.57,7.57,0,0,0-2.43,3.61,12.23,12.23,0,0,1-.95,2.44c-2.37,3-4.42-.82-5.9-2.84-1.94-2.64-4.27-3.81-7.5-2.68-2.45.86-7.51,5.7-8.36.65-.34-2.07,1.42-3.77,0-5.9-2.06-3-4.84-1-6.8.72-1.75,1.56-.39,5.17-5.49,3.41-2.44-.84-3.37-4.84-4.5-6.83a10.78,10.78,0,0,0-4.26-4.68,5.69,5.69,0,0,0-8.29,3.24c-1.57,4.49,2.33,8.92,3,13.12-18.35,11.74-77.63,20.21-77.63,20.21s-14.08,112.64,0,133.34,37.47,75.37,42.34,92.76c2.29,8.18,8.64,34.53,13.85,62.29,58.43-3.36,128.21-9.15,182.71-19C353.62,480.91,351.37,453.7,351,432.84Z"/><path class="cls-4" d="M322.26,18.38s29.38,35,23,71.07-54.53,115.08-77.07,107.33-55.58-47.69-54.91-92.1S220.63-27.3,322.26,18.38Z"/><path class="cls-5" d="M409.18,555.59c-28.16-39.75-56.74-64.34-57.56-105.75a362.46,362.46,0,0,1,1.66-38c-19.68-27.93-34.74-85.54-34.74-85.54-87.41-13.55-148.07,4.61-148.07,4.61-.36,30.8-16.87,72.32-21.85,90.93,6.64,15.44,15.25,34.93,17.33,42.34,4.87,17.39,32,108.8,23.76,129.51S15,921.66,5,948.16,2.54,1002,5,1055.82c1.4,30.17,13.71,99.89,24.27,159.43,15.3-.34,44.85-7.17,65.66-21.74,1-30.22-.67-67-.67-96.67,0-52.17-30.46-75-10.58-101.47S227,834.69,276.67,761.81s37.27,99.39,42.24,160.67-2.48,108.5,0,143.28c1.59,22.22-7.09,103.5-10.29,163.75,12.68,5.53,42.2,10.89,64,5.67.21-.69.42-1.37.65-2C386.52,1192.55,404.21,1113,400.9,1084s-7.45-61.28-3.31-80.33,47.21-231.9,49.69-275S437.34,595.35,409.18,555.59Z"/><path class="cls-6" d="M228.38,814.6c-.16-17-.79-34.93,4-51.39A67.76,67.76,0,0,1,242.89,741c4.34-5.81,10-10.52,15.56-13a32.88,32.88,0,0,1,17.65-2.75A22.35,22.35,0,0,1,290,732c9.87,10.42,12.61,27.36,12.84,41.52a98.5,98.5,0,0,1-12,47.83c-3,5.67,1.24,13.24,6.72,15.39,6.54,2.57,12.38-1,15.4-6.72a116.18,116.18,0,0,0,13.46-54c0-19.16-3.48-40.15-15.32-55.78s-32.54-22.15-51.57-17.48c-20.9,5.12-36.09,20.54-44.93,39.75-10,21.68-10.11,46-9.88,69.36.06,6.4,3.52,12.36,10.45,13.15,5.77.65,13.22-4,13.15-10.46Z"/><path class="cls-7" d="M332.8,826.83a30.9,30.9,0,0,0-28.47-20.93l-38.26-1-38.27-1a30.92,30.92,0,0,0-29.52,19.43L158.82,922a30.93,30.93,0,0,0,27.91,42.41l75.16,2L337,968.29a30.93,30.93,0,0,0,30.07-40.91Z"/><path class="cls-8" d="M246.7,802.33l-2.91,86c0,1.33,2,2.48,4.47,2.54l15.57.4,9.53.25c2.49.06,4.55-1,4.59-2.29q1.46-43,2.92-86c0-1.34-2-2.48-4.47-2.54l-10.22-.27L251.3,800C248.8,800,246.75,801,246.7,802.33Z"/><path class="cls-9" d="M188.31,910.89a56.92,56.92,0,0,0-21.1-9.87l-8.39,21a30.93,30.93,0,0,0,27.91,42.41l23.84.62A57.07,57.07,0,0,0,188.31,910.89Z"/><path class="cls-9" d="M367.11,927.38l-7.56-22.17a57.05,57.05,0,0,0-43.46,62.54l21,.54A30.93,30.93,0,0,0,367.11,927.38Z"/><path class="cls-3" d="M126.77,1241.34c-24-9.11-34,5.8-39.76-1.66,0,0,13.94,33.16,7.94,53.83s-22.67,27.33-24,32.67-4-6-8.67-7.34-17.48-2-17.48-2-3.35-2-4.35,5c-.7,4.89,3.48,31,6.06,46.28,1.58,29.18,4.4,59.51,9,67.85,8.28,14.9,40.37,32.3,53.73,5.79s12.53-61.28,13.36-95.24S150.79,1250.45,126.77,1241.34Z"/><path class="cls-3" d="M354.52,1334.1c0-1.22-.09-2.54-.12-3.95h0s-4.12,16.69-10.78,20.69,1.33-6.69-7.67-10.34-35.5-8-37.5.44c-.87,3.64-3,5.24-5.24,5.89a4.74,4.74,0,0,0-6.26,3.68c-1.33,5.33-13,60.66-13,60.66l-1.06,3.27a93.3,93.3,0,0,1-11.31,22.83c-8.51,12.87.74,26.84,3.54,28.51,8.28,5,60.46,20.71,75.36-5.8s5.8-72,14.08-87S355.35,1353.15,354.52,1334.1Z"/><path class="cls-10" d="M192,310c-1.51-40-11.51-87.66-12-90,0-.14-.07-.27-.11-.41-7,1.9-14.4,3.6-21.39,5.05.49,2.37,10.61,51.24,11.61,89.13A113.61,113.61,0,0,1,192,310Z"/><path class="cls-11" d="M299.34,303.42c5.22.15,14.66.66,21.88,2.27,3.88-36.4,2.06-78.9,1.69-86.53a78.16,78.16,0,0,1-22.12-6.26c.16,2.86,0,4.29.09,6.34C300.91,219.79,303.33,266,299.34,303.42Z"/><circle class="cls-12" cx="187.55" cy="350.9" r="9.8"/><path class="cls-12" d="M399.58,567.38a7.05,7.05,0,1,1-7.05-7A7,7,0,0,1,399.58,567.38Z"/><circle class="cls-12" cx="409.79" cy="596.35" r="7.05"/><path class="cls-12" d="M187.55,352.4a1.5,1.5,0,0,1-1.37-.89l-16.1-35.8a1.52,1.52,0,0,1,.06-1.35,1.47,1.47,0,0,1,1.13-.75l20.59-2.5a1.51,1.51,0,0,1,1.24.42,1.54,1.54,0,0,1,.43,1.24L189,351.07a1.51,1.51,0,0,1-1.27,1.31Zm-13.9-36.06,13,29,3.64-31Z"/><circle class="cls-12" cx="304.59" cy="344.75" r="9.8" transform="translate(-58.71 626.94) rotate(-86.38)"/><path class="cls-12" d="M304.16,346.18a1.49,1.49,0,0,1-1.06-1.24L297.89,306a1.53,1.53,0,0,1,.45-1.28,1.49,1.49,0,0,1,1.29-.4l20.45,3.48a1.53,1.53,0,0,1,1.07.76,1.51,1.51,0,0,1,.06,1.31L306,345.34a1.51,1.51,0,0,1-1.58.89Zm-3-38.52,4.22,31.51,12.34-28.69Z"/><rect class="cls-13" x="168.54" y="305.99" width="25.41" height="10.36" rx="2.04" transform="translate(-38.97 26.25) rotate(-7.48)"/><rect class="cls-13" x="297.38" y="300.41" width="25.41" height="10.36" rx="2.04" transform="translate(35.73 -32.44) rotate(6.35)"/><path class="cls-14" d="M232.27,363.37a.75.75,0,0,0,0,1.5h.05q2.46-.17,5-.3a.74.74,0,0,0,.7-.79.75.75,0,0,0-.79-.71Z"/><path class="cls-14" d="M208.22,365.31a.75.75,0,0,0,.08,1.5h.07l5-.47a.75.75,0,1,0-.13-1.49C211.52,365,209.85,365.15,208.22,365.31Z"/><path class="cls-14" d="M244.32,362.71a.75.75,0,0,0,0,1.5h0l5-.22a.74.74,0,0,0,.72-.78.76.76,0,0,0-.78-.72Z"/><path class="cls-14" d="M166.27,371.82a.76.76,0,0,0-.88-.6l-1.5.3c-.15.54-.29,1.08-.44,1.62l2.22-.44A.76.76,0,0,0,166.27,371.82Z"/><path class="cls-14" d="M297.58,362.13l-5-.11a.8.8,0,0,0-.76.74.74.74,0,0,0,.74.76l5,.11h0a.76.76,0,0,0,.75-.73A.75.75,0,0,0,297.58,362.13Z"/><path class="cls-14" d="M196.23,366.61a.75.75,0,0,0,.08,1.5h.09l5-.57a.74.74,0,0,0,.66-.82.75.75,0,0,0-.83-.67Z"/><path class="cls-14" d="M285.52,361.93l-5,0h0a.75.75,0,0,0,0,1.5l5,0h0a.74.74,0,0,0,.75-.74A.76.76,0,0,0,285.52,361.93Z"/><path class="cls-14" d="M220.24,364.23a.76.76,0,0,0-.69.81.74.74,0,0,0,.75.69h.06l5-.38a.75.75,0,1,0-.11-1.5Z"/><path class="cls-14" d="M315.87,363.54a.75.75,0,0,0,.71.78l5,.26h0a.75.75,0,0,0,0-1.5c-1.68-.1-3.35-.18-5-.26A.74.74,0,0,0,315.87,363.54Z"/><path class="cls-14" d="M304.56,363.83l5,.18h0a.75.75,0,0,0,.75-.72.76.76,0,0,0-.72-.78l-5-.18a.77.77,0,0,0-.78.72A.75.75,0,0,0,304.56,363.83Z"/><path class="cls-14" d="M327.92,364.21a.75.75,0,0,0,.7.8l2.25.15c-.19-.52-.38-1-.56-1.54l-1.6-.11A.75.75,0,0,0,327.92,364.21Z"/><path class="cls-14" d="M172.44,371.48h.13c1.48-.25,3.13-.52,5-.8a.75.75,0,0,0,.62-.86.74.74,0,0,0-.85-.62c-1.82.28-3.48.55-5,.8a.75.75,0,0,0,.12,1.49Z"/><path class="cls-14" d="M273.47,361.93h0l-5,.05a.75.75,0,0,0,0,1.5h0l5-.05a.75.75,0,1,0,0-1.5Z"/><path class="cls-14" d="M184.26,368.16a.73.73,0,0,0-.64.84.74.74,0,0,0,.74.65h.1c1.58-.22,3.24-.45,5-.67a.76.76,0,0,0,.65-.84.75.75,0,0,0-.84-.65C187.5,367.71,185.84,367.93,184.26,368.16Z"/><path class="cls-14" d="M256.42,363.75l5-.14a.75.75,0,0,0,.74-.76.76.76,0,0,0-.77-.74l-5,.14a.75.75,0,0,0,0,1.5Z"/><path class="cls-15" d="M251,389.28,193.16,392l3,64.06a30.42,30.42,0,0,0,21.48,27.64l30.1,9.21a24,24,0,0,0,16.17-.77l29.1-12a30.42,30.42,0,0,0,18.78-29.54l-3-64.06Z"/><path class="cls-16" d="M252.78,489.72h-.11a23.14,23.14,0,0,1-4.59-.89l-.57-.18a.77.77,0,0,1,.45-1.47l.57.17a20.78,20.78,0,0,0,4.28.84.77.77,0,0,1,0,1.53Zm7.12-.54a.75.75,0,0,1-.78-.59.77.77,0,0,1,.56-.93,20.74,20.74,0,0,0,3-1l1.73-.72a.77.77,0,0,1,1,.42.78.78,0,0,1-.41,1l-1.73.71a23,23,0,0,1-3.2,1.05Zm-19-2.6a.6.6,0,0,1-.26,0l-4.9-1.5a.77.77,0,0,1-.51-1,.76.76,0,0,1,1-.51l4.9,1.5a.76.76,0,0,1,.51,1A.75.75,0,0,1,240.9,486.58Zm30.45-1.86a.77.77,0,0,1-.74-.48.76.76,0,0,1,.41-1l4.74-2a.78.78,0,0,1,1,.42.77.77,0,0,1-.42,1l-4.74,2A1.1,1.1,0,0,1,271.35,484.72ZM229.14,483a.58.58,0,0,1-.26,0l-4.9-1.5a.76.76,0,0,1-.51-1,.77.77,0,0,1,1-.51l4.9,1.5a.77.77,0,0,1,.51,1A.76.76,0,0,1,229.14,483Zm53.59-3a.76.76,0,0,1-.75-.47.78.78,0,0,1,.42-1l4.73-2a.77.77,0,1,1,.59,1.42L283,480A.74.74,0,0,1,282.73,480Zm-65.26-.89a.75.75,0,0,1-.36-.07,28.24,28.24,0,0,1-4.54-2.66.77.77,0,1,1,.9-1.25,26.35,26.35,0,0,0,4.29,2.52.77.77,0,0,1-.29,1.46Zm76.42-4.23a.77.77,0,0,1-.46-1.41,27.72,27.72,0,0,0,3.9-3.09.76.76,0,0,1,1.09,0,.77.77,0,0,1,0,1.09,28.32,28.32,0,0,1-4.12,3.27A.68.68,0,0,1,293.89,474.9Zm-86-3.25a.78.78,0,0,1-.63-.28,27.82,27.82,0,0,1-3-4.36.77.77,0,0,1,1.35-.74,26.63,26.63,0,0,0,2.79,4.12.79.79,0,0,1-.11,1.09A.76.76,0,0,1,207.84,471.65Zm94.54-5.51a.78.78,0,0,1-.44-.11.77.77,0,0,1-.25-1.06,26.72,26.72,0,0,0,2.17-4.47.77.77,0,1,1,1.44.54,27.92,27.92,0,0,1-2.3,4.73A.77.77,0,0,1,302.38,466.14Zm-100-5.4a.77.77,0,0,1-.79-.58,29.51,29.51,0,0,1-.77-5.21.77.77,0,1,1,1.54-.08,26.32,26.32,0,0,0,.73,4.92.77.77,0,0,1-.57.93Zm103.87-6.16h-.11a.77.77,0,0,1-.69-.84,25.77,25.77,0,0,0,.1-3.93l-.05-1.08a.77.77,0,0,1,1.54-.07l0,1.07a27.63,27.63,0,0,1-.11,4.17A.77.77,0,0,1,306.25,454.58Zm-105-6.07a.77.77,0,0,1-.81-.73l-.24-5.12a.77.77,0,1,1,1.54-.08l.24,5.12A.77.77,0,0,1,201.29,448.51ZM306,442.29a.77.77,0,0,1-.8-.73l-.25-5.12a.77.77,0,1,1,1.54-.08l.24,5.12A.77.77,0,0,1,306,442.29Zm-105.26-6.07a.77.77,0,0,1-.81-.73l-.24-5.12a.77.77,0,1,1,1.54-.08l.24,5.12A.77.77,0,0,1,200.71,436.22ZM305.39,430a.77.77,0,0,1-.81-.73l-.24-5.12a.77.77,0,1,1,1.54-.08l.24,5.13A.77.77,0,0,1,305.39,430Zm-105.26-6.07a.77.77,0,0,1-.81-.73l-.24-5.12a.77.77,0,1,1,1.54-.07l.24,5.12A.77.77,0,0,1,200.13,423.93Zm104.68-6.22A.77.77,0,0,1,304,417l-.24-5.12a.77.77,0,1,1,1.54-.07l.24,5.12A.77.77,0,0,1,304.81,417.71Zm-105.27-6.07a.77.77,0,0,1-.8-.73l-.24-5.12a.77.77,0,0,1,1.53-.07l.25,5.12A.77.77,0,0,1,199.54,411.64Zm104.69-6.22a.77.77,0,0,1-.81-.73l-.24-5.12a.77.77,0,0,1,1.54-.07l.24,5.12A.77.77,0,0,1,304.23,405.42ZM199,399.35a.77.77,0,0,1-.8-.73l-.09-1.9a.77.77,0,0,1,.73-.81l3.22-.15a.77.77,0,0,1,.07,1.54l-2.45.11.06,1.14A.77.77,0,0,1,199,399.35Zm104.69-6.22a.77.77,0,0,1-.79-.59l-3.73.17a.77.77,0,1,1-.07-1.53l4.48-.22a.77.77,0,0,1,.81.74l0,.63A.77.77,0,0,1,303.65,393.13ZM292,393.05l-5.12.24a.77.77,0,0,1-.07-1.53l5.12-.25a.77.77,0,0,1,.8.74A.76.76,0,0,1,292,393.05Zm-12.29.58-5.12.24a.77.77,0,0,1-.07-1.53l5.12-.25a.77.77,0,0,1,.8.74A.76.76,0,0,1,279.67,393.63Zm-12.29.58-5.12.24a.77.77,0,1,1-.07-1.53l5.12-.24a.77.77,0,1,1,.07,1.53Zm-12.28.58-9,.43a.77.77,0,0,1-.08-1.54l9-.42a.77.77,0,1,1,.08,1.53Zm-16.14.76-5.12.25a.77.77,0,0,1-.08-1.54l5.12-.24a.77.77,0,1,1,.08,1.53Zm-12.29.59-5.12.24a.77.77,0,1,1-.08-1.54l5.13-.24a.77.77,0,0,1,.07,1.54Zm-12.29.58-5.12.24a.77.77,0,1,1-.07-1.54l5.12-.24a.77.77,0,0,1,.07,1.54Z"/><path class="cls-14" d="M222.61,546.67c-1.69,0-3.35-.09-5-.15a.75.75,0,0,0-.05,1.5q2.46.09,5,.15h0a.76.76,0,0,0,.75-.74A.75.75,0,0,0,222.61,546.67Z"/><path class="cls-14" d="M217.62,567.12a.75.75,0,0,0-.77.73.74.74,0,0,0,.72.77q2.46.09,5,.15h0a.76.76,0,0,0,.75-.74.75.75,0,0,0-.74-.76C220.92,567.23,219.26,567.18,217.62,567.12Z"/><path class="cls-14" d="M234.6,567.41h-.44c-1.54,0-3.06,0-4.55,0a.76.76,0,0,0-.76.75.74.74,0,0,0,.74.75c1.5,0,3,0,4.57,0h.44a.75.75,0,1,0,0-1.5Z"/><path class="cls-14" d="M205.66,566.55a.75.75,0,0,0-.1,1.5l5,.28h0a.76.76,0,0,0,.75-.72.75.75,0,0,0-.71-.78Z"/><path class="cls-14" d="M186.66,545.84h0a.75.75,0,0,0,.09-1.5l-.41,0C186.45,544.81,186.56,545.33,186.66,545.84Z"/><path class="cls-14" d="M198.68,545.47l-5-.42a.75.75,0,1,0-.14,1.49c1.6.14,3.26.29,5,.42h.05a.75.75,0,0,0,.06-1.49Z"/><path class="cls-14" d="M210.64,546.23l-5-.28a.75.75,0,0,0-.1,1.5c1.63.1,3.29.19,5,.27h0a.76.76,0,0,0,.75-.72A.75.75,0,0,0,210.64,546.23Z"/><path class="cls-14" d="M234.6,546.8h-.44c-1.54,0-3.06,0-4.55,0a.76.76,0,0,0-.76.75.74.74,0,0,0,.74.75c1.5,0,3,0,4.57,0h.44a.75.75,0,1,0,0-1.5Z"/><path class="cls-14" d="M193.71,565.65a.75.75,0,1,0-.14,1.49c1.6.15,3.26.29,5,.42h.05a.75.75,0,0,0,.06-1.49Z"/><path class="cls-14" d="M289.58,565.68c1.65-.19,3.31-.4,5-.62a.75.75,0,0,0,.65-.84.77.77,0,0,0-.85-.65c-1.65.22-3.3.43-5,.62a.75.75,0,0,0,.09,1.5Z"/><path class="cls-14" d="M294.35,543c-1.65.22-3.3.43-5,.62a.75.75,0,0,0,.09,1.5h.09c1.65-.2,3.31-.4,5-.62a.75.75,0,0,0,.65-.84A.77.77,0,0,0,294.35,543Z"/><path class="cls-14" d="M277.62,566.94c1.65-.15,3.32-.31,5-.49a.75.75,0,0,0,.67-.82.77.77,0,0,0-.83-.67c-1.66.17-3.32.34-5,.49a.75.75,0,0,0,.07,1.49Z"/><path class="cls-14" d="M307.07,562.48a.76.76,0,0,0-.86-.63c-1.65.27-3.29.52-4.93.76a.75.75,0,0,0,.11,1.49h.11l4.95-.76A.75.75,0,0,0,307.07,562.48Z"/><path class="cls-14" d="M246.58,546.65l-5,.1a.74.74,0,0,0-.74.76.75.75,0,0,0,.75.74h0l5-.1a.76.76,0,0,0,.73-.77A.73.73,0,0,0,246.58,546.65Z"/><path class="cls-14" d="M246.58,567.25l-5,.1a.75.75,0,0,0,0,1.5h0l5-.1a.76.76,0,0,0,.73-.77A.72.72,0,0,0,246.58,567.25Z"/><path class="cls-14" d="M258.56,566.79c-1.68.09-3.34.16-5,.23a.74.74,0,0,0-.72.78.76.76,0,0,0,.75.72h0l5-.23a.74.74,0,0,0,.71-.79A.75.75,0,0,0,258.56,566.79Z"/><path class="cls-14" d="M258.56,546.19l-5,.23a.74.74,0,0,0-.72.78.76.76,0,0,0,.75.72h0c1.65-.06,3.32-.14,5-.22a.75.75,0,0,0-.07-1.5Z"/><path class="cls-14" d="M282.45,544.36l-5,.48a.75.75,0,0,0-.67.82.74.74,0,0,0,.74.68h.07c1.65-.15,3.32-.31,5-.49a.75.75,0,0,0,.67-.82A.77.77,0,0,0,282.45,544.36Z"/><path class="cls-14" d="M382,520.53a.75.75,0,0,0,.29,1.45.71.71,0,0,0,.28-.06l.79-.33-.94-1.23Z"/><path class="cls-14" d="M313.1,560.69a.75.75,0,0,0-.61.87.77.77,0,0,0,.74.62h.13c1.64-.29,3.29-.6,4.93-.91a.75.75,0,1,0-.28-1.47Z"/><path class="cls-14" d="M313.1,540.09a.75.75,0,0,0-.61.87.77.77,0,0,0,.74.62h.13c1.64-.29,3.29-.6,4.93-.91a.75.75,0,1,0-.28-1.47Z"/><path class="cls-14" d="M329.74,557.36l-4.88,1.06a.75.75,0,0,0,.16,1.48l.15,0c1.63-.34,3.26-.69,4.9-1.06a.75.75,0,1,0-.33-1.46Z"/><path class="cls-14" d="M330.64,537.33a.75.75,0,0,0-.9-.57c-1.63.36-3.25.71-4.88,1a.77.77,0,0,0-.58.89.76.76,0,0,0,.74.6l.15,0c1.63-.34,3.26-.69,4.9-1.06A.75.75,0,0,0,330.64,537.33Z"/><path class="cls-14" d="M301.28,542a.75.75,0,0,0-.64.85.76.76,0,0,0,.75.64h.11c1.64-.24,3.29-.49,4.95-.76a.74.74,0,0,0,.62-.85.76.76,0,0,0-.86-.63C304.56,541.52,302.92,541.77,301.28,542Z"/><path class="cls-14" d="M376.5,544.14a.75.75,0,0,0-1-.44c-1.56.6-3.11,1.18-4.67,1.74a.75.75,0,0,0,.26,1.46.74.74,0,0,0,.25,0q2.36-.86,4.69-1.75A.75.75,0,0,0,376.5,544.14Z"/><path class="cls-14" d="M353.82,551.86a.75.75,0,0,0-.93-.5c-1.6.47-3.19.93-4.79,1.38a.75.75,0,0,0,.2,1.47.76.76,0,0,0,.21,0q2.4-.67,4.8-1.38A.76.76,0,0,0,353.82,551.86Z"/><path class="cls-14" d="M341.37,554.56c-1.61.41-3.22.82-4.83,1.21a.75.75,0,0,0-.55.9.75.75,0,0,0,.73.58l.18,0c1.61-.4,3.23-.8,4.85-1.22a.75.75,0,0,0,.53-.92A.74.74,0,0,0,341.37,554.56Z"/><path class="cls-14" d="M392.6,537.36a.76.76,0,0,0,.68.43.71.71,0,0,0,.32-.07l1.67-.79c-.31-.41-.62-.81-.94-1.21l-1.36.64A.76.76,0,0,0,392.6,537.36Z"/><path class="cls-14" d="M386.6,539.2q-2.28,1-4.59,1.93a.75.75,0,0,0,.29,1.45.71.71,0,0,0,.28-.06q2.31-.94,4.62-1.94a.75.75,0,0,0,.39-1A.76.76,0,0,0,386.6,539.2Z"/><path class="cls-14" d="M265.64,567.88l5-.35a.75.75,0,0,0-.11-1.5c-1.67.13-3.33.25-5,.35a.75.75,0,0,0-.7.8.74.74,0,0,0,.75.7Z"/><path class="cls-14" d="M342.28,534.49a.75.75,0,0,0-.91-.54q-2.42.63-4.83,1.22a.75.75,0,0,0-.55.9.75.75,0,0,0,.73.58l.18,0c1.61-.39,3.23-.8,4.85-1.21A.75.75,0,0,0,342.28,534.49Z"/><path class="cls-14" d="M375.53,523.1c-1.56.6-3.11,1.18-4.67,1.74a.75.75,0,0,0,.26,1.46.74.74,0,0,0,.25,0q2.36-.86,4.69-1.75a.75.75,0,1,0-.53-1.4Z"/><path class="cls-14" d="M270.52,545.43c-1.67.13-3.33.25-5,.35a.75.75,0,0,0-.7.8.74.74,0,0,0,.75.7h.05l5-.35a.76.76,0,0,0,.69-.81A.75.75,0,0,0,270.52,545.43Z"/><path class="cls-14" d="M352.89,530.76c-1.6.47-3.19.93-4.79,1.38a.74.74,0,0,0-.52.92.77.77,0,0,0,.72.55l.21,0,4.8-1.38a.75.75,0,1,0-.42-1.44Z"/><path class="cls-14" d="M364.28,547.75c-1.58.53-3.15,1-4.73,1.55a.75.75,0,0,0,.23,1.47.66.66,0,0,0,.23,0c1.58-.51,3.17-1,4.75-1.56a.75.75,0,0,0-.48-1.42Z"/><path class="cls-14" d="M365.23,527.62a.75.75,0,0,0-1-.47c-1.58.53-3.15,1.05-4.73,1.55a.76.76,0,0,0-.49.95.77.77,0,0,0,.72.52.66.66,0,0,0,.23,0c1.58-.51,3.17-1,4.75-1.56A.75.75,0,0,0,365.23,527.62Z"/><path class="cls-14" d="M72.25,1196.76c-1.51.63-3.06,1.24-4.62,1.83a.74.74,0,0,0-.44,1,.74.74,0,0,0,1,.44c1.58-.59,3.15-1.21,4.68-1.85a.75.75,0,1,0-.58-1.38Z"/><path class="cls-14" d="M61.05,1200.87c-1.58.5-3.18,1-4.77,1.43a.75.75,0,0,0,.21,1.47l.2,0c1.6-.45,3.22-.93,4.81-1.44a.75.75,0,0,0,.49-1A.74.74,0,0,0,61.05,1200.87Z"/><path class="cls-14" d="M83.06,1191.7c-1.45.76-3,1.51-4.45,2.22a.75.75,0,0,0,.33,1.43.71.71,0,0,0,.32-.07c1.51-.72,3-1.48,4.5-2.25a.75.75,0,0,0-.7-1.33Z"/><path class="cls-14" d="M93.37,1185.71c-1.38.88-2.8,1.76-4.23,2.61a.75.75,0,0,0,.39,1.39.75.75,0,0,0,.38-.1c1.44-.86,2.88-1.74,4.28-2.64a.76.76,0,0,0,.22-1A.75.75,0,0,0,93.37,1185.71Z"/><path class="cls-14" d="M32.94,1208.35H33c1.65-.18,3.33-.39,5-.63a.75.75,0,1,0-.21-1.49c-1.64.24-3.3.45-4.94.62a.75.75,0,0,0-.66.83A.74.74,0,0,0,32.94,1208.35Z"/><path class="cls-14" d="M49.53,1204c-1.61.37-3.25.72-4.86,1a.75.75,0,0,0,.14,1.48H45c1.63-.32,3.29-.67,4.92-1a.75.75,0,0,0-.34-1.46Z"/><path class="cls-14" d="M342.63,1228.87a.75.75,0,1,0-.08,1.5c1.67.1,3.36.17,5,.21h0a.75.75,0,0,0,0-1.5C346,1229,344.29,1229,342.63,1228.87Z"/><path class="cls-14" d="M371.38,1227.53c-1.64.25-3.29.48-4.92.67a.75.75,0,0,0,.08,1.5h.09c1.65-.19,3.33-.42,5-.68a.75.75,0,1,0-.23-1.48Z"/><path class="cls-14" d="M354.61,1230.56c1.66,0,3.35-.12,5-.23a.75.75,0,1,0-.1-1.5c-1.65.11-3.32.19-5,.23a.75.75,0,0,0,0,1.5Z"/><path class="cls-14" d="M318.68,1227c1.64.37,3.29.72,4.92,1h.15a.75.75,0,0,0,.73-.61.76.76,0,0,0-.59-.88c-1.62-.31-3.26-.65-4.87-1a.75.75,0,1,0-.34,1.46Z"/><path class="cls-14" d="M312.06,1225.26a.75.75,0,0,0,.21-1.48c-1.1-.31-2.2-.63-3.28-1l-.09,1.55c1,.3,2,.59,3,.87Z"/><path class="cls-14" d="M330.76,1227.68a.75.75,0,0,0-.22,1.48c1.65.24,3.33.45,5,.63h.08a.75.75,0,0,0,.08-1.49C334.05,1228.12,332.39,1227.91,330.76,1227.68Z"/><path class="cls-17" d="M182.51,511.81c-12.68-31.58-16-26-22.06-49.53-1-4.06-1.79-10.44-2.29-18.24-3-7.22-6.5-15.13-9.54-22.2.84-3.14,2-6.95,3.38-11.24-8.16-18.28-17.42-36.88-24.4-47.15-14.08-20.7,0-133.34,0-133.34s-39.32-.23-41.41,51.35c-2.37,58.14,23.74,184.41,29.54,201.8s8.55,37.55,24.29,72.33,48.38,74.87,56.87,106.56c8.28,30.92-1.11,89.45,16.84,98.84,9.65,5,52.18-3.32,55.49-14.08s-29-75.37-35.61-90.28S195.18,543.4,182.51,511.81Z"/><path class="cls-18" d="M397.86,267.38c-.55-58.53-58.1-47.65-58.1-47.65s18.9,70,17.94,105.62a355.56,355.56,0,0,1-2.83,35.94,394.34,394.34,0,0,0-3.14,47.34c-.18,21.35-1.11,35.42-9.08,52.55-11,23.74-33.13,124.23-33.68,134.72s-29.81,77.85-39.51,100.49-6.87,40.3-.24,50.52,27,3.58,48.59,1.38,13.25-64,12.69-90.55-11-18.78,23.19-81.17,32-85,43.62-125.88S398.42,325.91,397.86,267.38Z"/><path class="cls-3" d="M182.51,511.81c-12.68-31.58-16-26-22.06-49.53-1-4.06-1.79-10.44-2.29-18.24-3-7.22-6.5-15.13-9.54-22.2.84-3.14,2-6.95,3.38-11.24-8.16-18.28-17.42-36.88-24.4-47.15-14.08-20.7,0-133.34,0-133.34s-39.32-.23-41.41,51.35c-1.52,37.3,8.68,102.63,17.72,149.28,3.07,23.56,5.64,47.19,8.65,70.76,1.36,10.68,2.14,21.9,6.48,31.88,3.51,8.06,8.76,11.39,17.1,13.3.08.21.17.42.26.63,15.76.56,35.52-2.54,53.26-16.44C186.92,523.27,184.48,516.73,182.51,511.81Z"/><path class="cls-3" d="M397.86,267.38c-.55-58.53-58.1-47.65-58.1-47.65s18.9,70,17.94,105.62a355.56,355.56,0,0,1-2.83,35.94,394.34,394.34,0,0,0-3.14,47.34c-.18,21.35-1.11,35.42-9.08,52.55-5,10.78-12.3,37.38-18.82,64.19a64,64,0,0,0,36.74,15.49c3,.28,5.9.77,8.84,1.26,5.91,1,12.2-3.11,15.11-8.75s3.82-12,5.1-18q2.22-10.49,4-21.07a620.35,620.35,0,0,0,7.18-61.84C406.32,388.18,398.34,318.21,397.86,267.38Z"/><path class="cls-19" d="M290.46,160.35,285.14,154l-6.75,4.24-4.24-6.74-7.54,3.4-4.5,1.88-4.17-1s2.69,14.75,16.91,18c13.1,3,23-8.9,23-8.9l-4.17-.95Z"/><path class="cls-20" d="M278.38,156.88,272,155.43l-4.74,2.81a30.14,30.14,0,0,0,10.15,4.37c6.07,1.38,9.89-.07,9.89-.07l-2.78-4.26Z"/><path class="cls-19" d="M281.65,152.83a3.63,3.63,0,0,1-3.94-.84,5.66,5.66,0,0,0-5-1.48c-5.77.7-9.88,6.44-14.73,5.34,0,0,8.6,3.43,12.26,2.12s8,1,8,1,4.93-.17,7.67,2.6,12,3.39,12,3.39c-4.85-1.1-6.21-8.17-11.1-11.3A5.51,5.51,0,0,0,281.65,152.83Z"/><path class="cls-21" d="M390.4,225.15c-3.16-2.47-6.75-4.08-10.18-6.12a14.27,14.27,0,0,1-5.27-4.87c1.93-3.53,4.56-6.61,6.91-9.88,4.55-6.34,7-13.3,5.44-21.13-1.47-7.54-6.11-13.09-12.47-17.11-4.24-2.68-8.74-5-12-8.89-.45-.55-.86-1.1-1.25-1.67a22.54,22.54,0,0,1-1.24-6.11c-.77-11.74,4.09-23.14,5.95-34.58A112,112,0,0,0,362,60.7a93.54,93.54,0,0,0-36.09-47.6,2.19,2.19,0,0,0-.94-.75l-.52-.24,0,0a2.71,2.71,0,0,0-.73-.32C298.09.39,268.77-4.41,241.8,5a81.91,81.91,0,0,0-31.64,19.64c-9.57,9.75-15.55,22-20,34.78-4.33,12.26-7.38,25-12.25,37.06a107.69,107.69,0,0,1-6.91,8.47c-8.19,9-18.19,15-27.61,22.51-7.38,5.89-14.22,14.77-12.57,24.81,1.15,7,6.4,11.68,10.62,17l1.82,2.51.46.63.15.23c1.26,1.67,3.26,4.35,3.34,4.88,3,4.85,5,10.33,2,15.6-3.85,6.93-12.37,10.26-13.93,19.06a15.23,15.23,0,0,0,1.42,9.31c3.46,7.06,10.46,10.59,16,15.74,3.07,2.89,6,6.9,5.51,11.34,0,0-.27,7.51-11.13,6.13a1.49,1.49,0,0,0-1.1,2.68l0,0c.58.36,1.17.7,1.78,1,.72,7.07,10.32,10,16.48,8.76,7.69-1.58,12.52-8.74,12.31-16.29,1.24-6.32-3.55-12.33-8.62-16.94-4.55-4.13-8.51-8.57-9-15.05a13,13,0,0,1,.34-4.1l.34-.16a18.08,18.08,0,0,1,3.05-.82,71,71,0,0,1,7.55-.77c3.37-.32,6.83-.79,9.83-2.47,5.94-3.33,8.82-10.34,8.64-16.93-.25-8.8-5.14-15.94-9.37-23.29-2.25-3.93-4.18-8.24-4.12-12.68a19.55,19.55,0,0,1,6-6.54c5.25-3.74,11.37-6,16.54-9.89A46.63,46.63,0,0,0,209,129.12a46,46,0,0,0,6.18-14.66c1.5-6.68.83-13.68,2.48-20.32a20.3,20.3,0,0,1,4.46-8.57c13.92-3.67,31.19-.8,44.32-2.27,18.09-2,35.71-9.84,46-25.26-.45,13.4,7.82,25.6,15.34,36.72,1.61,4,3.21,7.93,4.56,12,2.36,7.18,3.7,14.66,2.24,22.18-1.38,7.08-4.67,13.59-7.35,20.23-4.27,10.58-7.35,24.27,1.13,33.76,4.51,5.06,11.11,5.93,16.81,9a16.46,16.46,0,0,1,8.91,16c-1.86,7.51-6.07,15.35-6.61,22.92-5.6,7.87-1.38,19.09,7.06,23.77,5.66,3.14,12.13,3.68,18.44,2.77A68.27,68.27,0,0,0,385,254.21c.67-.23,1.34-.46,2-.68a19.42,19.42,0,0,1,3,1.19A13.9,13.9,0,0,1,397.56,265a37.35,37.35,0,0,1,.38,7,2.22,2.22,0,0,0,2.39.06,2.06,2.06,0,0,0,1.23-1.2C408.42,255.2,404,235.79,390.4,225.15Zm-218.92,33.6a12.09,12.09,0,0,1-4.39,4.21c-3.85,2.15-13.41,2.21-15.84-2.85C158,262.91,165.71,263.51,171.48,258.75ZM151.54,131c-8.22,5.91-17.63,13.1-16.37,24.45.05.4.11.79.17,1.18a19,19,0,0,1-1.29-3.32c-3.73-13.49,10.23-23.12,19.61-29.58A112.8,112.8,0,0,0,173,106.84,71.65,71.65,0,0,1,151.54,131Zm33,56.17c1.75,5.84,1.65,12.36-2.19,17.37-4.19,5.47-10.73,5.21-17,5.88a31.73,31.73,0,0,0-4.68.88c1.74-2.86,4.52-5.12,7.53-7.26,7.32-5.22,13.34-10.87,11.29-20.67-1-4.9-3.67-9.26-5.19-14a17.72,17.72,0,0,1-.79-3.88C176.33,173,182.25,179.51,184.55,187.17ZM251.84,80.91c-8.15-.09-17.25-.36-25.73,1,5.42-3.83,12.52-5.62,19.3-6,15-.81,29.83,2.4,44.33-3a54.55,54.55,0,0,0,5.43-2.35C282.65,78.48,266.86,81.08,251.84,80.91Zm127.39,92.42a22.2,22.2,0,0,1,5.54,15.85c-.44,8.53-6.49,14.24-10.89,20.9a12.93,12.93,0,0,1,1.56-5.56c2.11-4.2,4.9-8,5.48-12.79.54-4.41-.81-8.73-2.9-12.58-3-5.49-7.39-9.77-11.07-14.44C371.13,167.47,375.83,169.58,379.23,173.33Zm-35.87,14.55c-8.08-3.36-14.94-6.1-17-15.56-1.82-8.45,1.38-16.88,4.59-24.57,2.71-6.47,5.71-12.91,6.75-19.9a43.88,43.88,0,0,0-1.44-18.19c-.2-.71-.41-1.41-.62-2.12,2.71,5.22,4.69,10.77,4.82,16.7.23,10.3-4.81,19.71-6.79,29.62-1.48,7.43-1.6,15.58,2.38,22.28,3.8,6.4,10.74,9.66,15.31,15.33a15.68,15.68,0,0,1,2.76,5.1A23.39,23.39,0,0,0,343.36,187.88Zm28.07,66.65c-7,.81-14.82-.47-19.85-5.9A13.57,13.57,0,0,1,348,237.4a16.89,16.89,0,0,0,2.69,5.41c4.94,6.71,13.77,8.39,21.57,9,2.52.2,5.14.27,7.75.5A45.56,45.56,0,0,1,371.43,254.53Z"/></g></g></svg>