<svg xmlns="http://www.w3.org/2000/svg" xmlns:xlink="http://www.w3.org/1999/xlink" viewBox="0 0 618.4 1673.15"><defs><style>.cls-1{fill:#1d0523;}.cls-2{fill:url(#linear-gradient);}.cls-3{fill:#720c53;}.cls-4{fill:url(#linear-gradient-2);}.cls-5{fill:url(#linear-gradient-3);}.cls-6{fill:#fff;}.cls-7{fill:url(#linear-gradient-4);}.cls-8{fill:url(#linear-gradient-5);}.cls-9{fill:url(#linear-gradient-6);}.cls-10{fill:url(#linear-gradient-7);}.cls-11,.cls-19{fill:#dc6672;}.cls-12{fill:url(#linear-gradient-8);}.cls-13{fill:url(#linear-gradient-9);}.cls-14{fill:url(#linear-gradient-10);}.cls-15{fill:url(#linear-gradient-11);}.cls-16{fill:#b4107a;}.cls-17{fill:#c62294;}.cls-18{fill:url(#linear-gradient-12);}.cls-19{stroke:#dc6672;stroke-miterlimit:10;}.cls-20{fill:#2a0533;}</style><linearGradient id="linear-gradient" x1="346.71" y1="1576.75" x2="350.19" y2="1521.5" gradientUnits="userSpaceOnUse"><stop offset="0" stop-color="#2a0533"/><stop offset="1" stop-color="#1d0523"/></linearGradient><linearGradient id="linear-gradient-2" x1="357.22" y1="1497.87" x2="369.63" y2="1443.4" gradientUnits="userSpaceOnUse"><stop offset="0" stop-color="#cd42a4"/><stop offset="1" stop-color="#902e78"/></linearGradient><linearGradient id="linear-gradient-3" x1="256.34" y1="1615.91" x2="575.81" y2="213.07" xlink:href="#linear-gradient-2"/><linearGradient id="linear-gradient-4" x1="367.24" y1="101.19" x2="397.32" y2="-30.9" xlink:href="#linear-gradient-2"/><linearGradient id="linear-gradient-5" x1="404.7" y1="1378.15" x2="404.7" y2="929.44" gradientUnits="userSpaceOnUse"><stop offset="0" stop-color="#451b56"/><stop offset="1" stop-color="#361342"/></linearGradient><linearGradient id="linear-gradient-6" x1="398.16" y1="1592" x2="401.6" y2="1546.2" xlink:href="#linear-gradient"/><linearGradient id="linear-gradient-7" x1="282.33" y1="1478.13" x2="282.33" y2="1229.54" xlink:href="#linear-gradient"/><linearGradient id="linear-gradient-8" x1="66.21" y1="865.24" x2="202.97" y2="264.68" xlink:href="#linear-gradient-2"/><linearGradient id="linear-gradient-9" x1="305.28" y1="357.37" x2="215.93" y2="760.6" gradientUnits="userSpaceOnUse"><stop offset="0" stop-color="#b4107a"/><stop offset="1" stop-color="#950c64"/></linearGradient><linearGradient id="linear-gradient-10" x1="320.61" y1="443.67" x2="581.8" y2="704.86" xlink:href="#linear-gradient-9"/><linearGradient id="linear-gradient-11" x1="435.66" y1="871.34" x2="577.55" y2="248.27" xlink:href="#linear-gradient-2"/><linearGradient id="linear-gradient-12" x1="483.44" y1="1537.13" x2="547.98" y2="1368.43" xlink:href="#linear-gradient"/></defs><title>Asset 5</title><g id="Layer_2" data-name="Layer 2"><g id="Layer_1-2" data-name="Layer 1"><path class="cls-1" d="M344.11,50.09,270.84,98.66l-3.49,101.55s-4.34,57.56-4.34,59S296.71,287,298.2,287,490,258.76,490,258.76L469.2,174s-22.8-76.82-23.79-81.78-82.77-69.89-82.77-68.4S344.11,50.09,344.11,50.09Z"/><path class="cls-2" d="M373,1473.08l-14.06,123.33s-13.65,6.77-18.85,0l-6.77-119.67Z"/><path class="cls-3" d="M294.44,874.94s97.15,4.82,121.74-13.21S331.9,684.51,331.9,684.51Z"/><path class="cls-4" d="M358.91,1498.25a20.76,20.76,0,0,0,3.52-3.29c7.49-9.15,7-31.6.9-53C362.23,1459,360.57,1479.16,358.91,1498.25Z"/><path class="cls-5" d="M506,1421.09c15.61-84.28,122.52-316.84,111.6-352S485,753.07,483.39,710.93,470.9,616.51,460,588.41s-34.34-79.6-25.76-115.5,31.22-63.21,27.32-130.32-3.9-111.6-3.9-111.6-62.92,28.1-69.7,3.12-7.56-65.55-7.56-65.55L311,172.82s8.51,70.66-4.76,80.8-59.31,21.07-59.31,21.07-39,117.06-25.75,149.06S261,525.2,246.93,552.51,191,672.81,191,745.38s35.11,259.86,33.94,304.34,12.66,162.7,27.4,218.88,34.91,99.94,36,118.41c.17,3.07.25,6.75.16,10.86,21.71,1.11,45.65,2.28,60.51,2.9-9-30.62-17.75-72.3-17.75-84.78,0-16.64-20.82-239.35-23.16-282.66s26.28-280.26,26.28-280.26,167.79,288.75,165.45,313.72-25,57.75-31.22,105.35-10.92,195.88-34.34,231-42.92,26.14-49.94,59.7c-8.64,41.26,17.17,51.11,41.36,86.23s11.71,103,35.9,112.38,85.84,18,99.89,5.46-21.07-47.6-35.9-74.14S490.41,1505.37,506,1421.09Z"/><path class="cls-6" d="M306.24,253.62s27.53,11.79,86.34-7.76l83,73.32-43.7,256L260.2,579.83S222.74,318.4,225.08,312.15,306.24,253.62,306.24,253.62Z"/><path class="cls-7" d="M447.79,71.16c2.59-51.49-59-64.26-59-64.26s-61-15.28-81.08,32.21c-17,40.31-2.77,39.86-12.17,67.08-8.81,25.52,11.86,90,48,98.31s82.84-40.83,86-67.65C433,108.26,445.6,114.87,447.79,71.16Z"/><path class="cls-8" d="M340.5,1368.51c-5.33-22.55-9.29-44.13-9.29-52.52,0-16.64-20.82-239.35-23.16-282.66s26.28-280.26,26.28-280.26,167.79,288.75,165.45,313.72-25,57.75-31.22,105.35c-5.81,44.35-10.28,176-29.79,222.24,14.66,10.63,36.46,19.36,68.62,20,19.61-89.28,120.87-311,110.23-345.24C606.69,1034,485,753.07,483.39,710.93S470.9,616.51,460,588.41c-4.72-12.12-11.75-28.6-17.54-46.3-88,29.52-155.52,21.37-195.4,10.17,0,.08-.07.16-.11.23C232.88,579.83,191,672.81,191,745.38s35.11,259.86,33.94,304.34,12.66,162.7,27.4,218.88c13.56,51.68,31.7,92.82,35.33,113.47A190,190,0,0,0,340.5,1368.51Z"/><path class="cls-9" d="M382.58,1480.4l10.28,163.88s11.71,9.36,21.85,4.68l13.79-142Z"/><path class="cls-10" d="M279.42,1368.8a4.84,4.84,0,0,0-4.14,6.18c4.81,16.39,13.78,60.81,6.72,75.18-8.61,17.55-30.76,70.59-50.25,86.64s-61.92,61.54-26.3,62.69,91.6,8.87,101.58-25.17c7.51-25.65,3.2-45.91,29-62.33s44.15-19.28,34.15-54.11c-8.56-29.81-21.6-82-23.51-101.08a4.84,4.84,0,0,0-6.51-4C327.94,1357.32,300.85,1366.68,279.42,1368.8Z"/><path class="cls-11" d="M272.37,285.45c45.12,18.17,97.87,14.37,140.16-9.52,6.56-3.71.67-13.82-5.91-10.11-39.79,22.48-88.81,25.39-131.14,8.34-3-1.19-6.4,1.3-7.2,4.09-.95,3.33,1.17,6,4.09,7.2Z"/><path class="cls-11" d="M270.38,318.56c48,19.84,104.06,16.85,150-7.25,6.68-3.5.77-13.61-5.91-10.11-43.32,22.75-95.8,24.73-140.93,6.07-2.94-1.22-6.41,1.32-7.2,4.09-1,3.35,1.18,6,4.09,7.2Z"/><path class="cls-11" d="M273.85,359.4a203.4,203.4,0,0,0,149.23-16.75c6.64-3.57.73-13.68-5.91-10.11A191.07,191.07,0,0,1,277,348.11c-7.27-2-10.38,9.28-3.11,11.29Z"/><path class="cls-11" d="M284.13,393.1a219.53,219.53,0,0,0,131.35-9.33c2.93-1.17,5-3.92,4.09-7.2-.78-2.79-4.24-5.27-7.2-4.09a208.72,208.72,0,0,1-125.13,9.34c-7.32-1.75-10.45,9.54-3.11,11.28Z"/><path class="cls-11" d="M290.3,431.54A227.12,227.12,0,0,0,406,415c2.94-1.24,3.52-5.51,2.1-8-1.72-3-5.11-3.33-8-2.1a216,216,0,0,1-109.75,15c-3.14-.38-5.85,3-5.85,5.86,0,3.48,2.7,5.47,5.85,5.85Z"/><path class="cls-11" d="M284.8,457.15c36.57,23.25,86.7,22.18,122.12-2.88,6.1-4.31.26-14.47-5.91-10.1-32.21,22.79-77,24.07-110.3,2.87-6.37-4.05-12.25,6.07-5.91,10.11Z"/><path class="cls-11" d="M289.78,497.69c38.29,19,85.33,14,119-12.16,2.52-2,2-6.22,0-8.28-2.43-2.49-5.79-1.93-8.27,0C371.26,500,328.79,504,295.68,487.58c-6.72-3.33-12.66,6.76-5.9,10.11Z"/><path class="cls-11" d="M287.39,528.55A178.41,178.41,0,0,0,352.05,539c19.7-.6,39.17-5.38,54.78-17.86,2.49-2,2-6.2,0-8.28-2.41-2.46-5.82-2-8.28,0-13.7,10.95-31.93,14.27-49,14.49a170.07,170.07,0,0,1-59-10.07c-7.11-2.53-10.17,8.78-3.11,11.28Z"/><path class="cls-12" d="M246.93,274.69S205.3,277,191,319.7,154.84,503.35,135.33,533s-32,50.73-49.94,93.65-38.24,121-53.85,141.25-43.7,67.89-25.75,76.48,65.55,34.34,65.55,0-8.58-64.77,6.25-88.18S188.13,579.65,193.34,566.82c7.55-18.56,47.35-141.51,47.35-141.51Z"/><path class="cls-13" d="M300.41,257.17s-7.3,115.94,8.17,161.9c27.32,81.16,18.73,201.34,3.12,273.13s-33.55,187.3-33.55,187.3-99.11,0-144.38-42.14c0,0,81.65-252.6,92.72-308.53s8-251.61,8-251.61Z"/><path class="cls-14" d="M404.7,244.41s-32,170-34,191.83,40.2,432.43,27.42,449.6c0,0,100.88-.1,162.53-43,0,0-102.5-319.11-103.41-348.05s11.23-267.9,11.23-267.9Z"/><path class="cls-15" d="M457.64,231s28.09-17.38,47.64,12.73c22.26,34.26,14.79,146.47,8.54,198s8.59,111.59,3.13,167.78-18.73,120.18-12.49,138.91,43.7,76.48,46,89.75,9.37,63.21,0,59.31S499,869.56,488.07,834s-14.83-54.34-17.95-154.23S457.64,551,457.64,516.62s-7-192-7-192Z"/><path class="cls-6" d="M44.8,709,32.32,733.17s21.85,24.59,49.17,29.27l16.78-33.56Z"/><path class="cls-16" d="M191,319.7c-14.3,42.66-51.05,168.6-67.53,200-19.88,37.9-32.36,58.79-50.31,101.71-9.64,23.06-27,51.19-36.93,80.12,8.64,9.37,46.05,33.75,60.87,39,30.66-49,91.88-163,96.24-173.77,7.55-18.56,47.35-141.51,47.35-141.51l6.24-150.62S205.3,277,191,319.7Z"/><path class="cls-6" d="M462.32,702.09V730.7s29.13,5.73,49.42,0l3.12-43.59Z"/><path class="cls-16" d="M456.78,679.72c0,8.58-1.64,19.09-1.49,23.41,10.56.61,57.25,2.68,69.84,2.08.2-25.54-1.37-67.36-.9-94.69,1-56.44,1.4-110.81,0-166-1.22-49.47,3.27-166.58-19-200.84C485.73,213.61,457.64,231,457.64,231l-7,93.65s7,157.64,7,192S456.78,579.78,456.78,679.72Z"/><path class="cls-17" d="M383.7,211.89s23.47-1.45,31.79,1.15,40.19,88.19,40.19,88.19l-51,34.34L456.78,342s-46,170.71-55.33,213.64-15,82.34-15,82.34S370.77,458,370.7,436.24c-.09-25,18.82-162.81,21.88-190.38a7.54,7.54,0,0,0-1.9-6C388.37,237.35,385,230.53,383.7,211.89Z"/><path class="cls-17" d="M313.52,225.14s-28.35,11.58-38.5,18.6S238.74,336,238.74,336l42.53,13.65-43.7,14.83s78.7,177.85,83.34,272.37c0,0,14.67-97,0-193.81s-24.72-175-14.67-189.38C315,241.14,313.52,225.14,313.52,225.14Z"/><path class="cls-6" d="M400.38,200.71c-4.57-1.71-9.33-.17-13.62,1.59-5.52,2.25-10.88,4.87-16.42,7-11.37,4.45-21.9,5.48-33.67,1.93-10.34-3.11-21-9.42-31.95-9.58-12.27-.18-17.8,11.12-15.74,22,1.21,6.4,4.12,12.61,6.65,18.58q3.69,8.7,8,17.11a3,3,0,0,0,1.34,2.24,3.18,3.18,0,0,0,1.87.91c19.87,8.78,42.41,13,63.49,5.85,18.53-6.29,35.28-21.21,38.56-41.25C410.23,218.87,409.9,204.28,400.38,200.71Z"/><path class="cls-18" d="M511.87,1435.91c.51-2.73,2.8-10,4.71-16.18a7.49,7.49,0,0,0-5.72-9.58c-23.42-4.45-51.91-19.49-68.51-29.71a7.5,7.5,0,0,0-11.3,5c-1.77,9.29-3.62,20.28-5.8,23.55-23.41,35.12-33.95,20.29-41,53.85-8.64,41.26,17.17,51.11,41.36,86.23s11.71,103,35.9,112.38,85.84,18,99.89,5.46-21.07-47.6-35.9-74.14S496.27,1520.2,511.87,1435.91Z"/><circle class="cls-19" cx="283.38" cy="614.61" r="10.37"/><circle class="cls-19" cx="262.64" cy="699.81" r="10.37" transform="translate(-417.91 390.69) rotate(-45)"/><path class="cls-20" d="M514.93,224.56c-6.2-14.86-16.14-27.86-23.12-42.36a251.73,251.73,0,0,1-13.48-34.93c-1.21-16.56-1.31-33.26-4-49.65A116,116,0,0,0,445.71,38C430.37,21.1,409.83,8.77,387.4,4.43,365.43-4.49,338,1,318.09,12.6c-22.76,13.25-39.73,36-50.5,59.65a146.61,146.61,0,0,0-11.92,40c-2,14.21-1.25,28.35-.61,42.63a203.15,203.15,0,0,1,.11,20.65c-1.11,3.12-2.36,6.2-3.78,9.21-3.94,8.33-8.73,16.2-13.3,24.19-8.31,14.52-16.42,30.48-16.1,47.65.25,14,6.39,29,19.4,35.63a35.82,35.82,0,0,0,35.23-1.82c2.2.4,4.4.77,6.58,1.12a4.06,4.06,0,0,0,4.64-3.64,3.32,3.32,0,0,0,1.81-3.15c-.08-9.05-3.66-17.24-7.84-25.11s-9.39-16-10.56-25.09c-1.41-11,3.76-21.49,6.93-31.69,3.38-10.84,4.33-22.14,4.55-33.45.41-20.73-1.46-43.72,10.28-62a.18.18,0,0,1,.05-.07Q295,106,297,104.85c12-6.84,25.72-9.23,38.68-13.48a93.1,93.1,0,0,0,49.08-37.26c1.06,13.58,7.47,26.28,16.09,37.07,8.28,10.36,18.47,19,27.63,28.55,1,2.24,1.91,4.5,2.75,6.79a86.79,86.79,0,0,1,5.17,22.24c.69,8-.12,16-1.06,23.94-1.63,13.79-3.43,28.35,2.19,41.53s18.44,18.35,28.48,27.54a52.3,52.3,0,0,1,16,29.63,25.64,25.64,0,0,1-7.94,17.36,3.61,3.61,0,0,0-.95,1.44c-3.64,2.38,0,8.33,4.13,6.2a50.66,50.66,0,0,0,9.61-6.49A47.45,47.45,0,0,0,515,265.16C521.29,252,520.48,237.85,514.93,224.56Zm-273,63.76c-12.93-7.49-17.43-23.85-16-37.9,1.78-17.25,11.25-32.49,19.72-47.17,2.83-4.9,5.48-9.81,7.86-14.81a65.74,65.74,0,0,1-2.87,10c-5,13.16-14.59,24.05-19.07,37.49-4.82,14.45-2,29.26,9.45,39.66,8.45,7.66,19,11.35,29.94,13.73A31.8,31.8,0,0,1,241.94,288.32ZM360.37,74.67c-10.94,8.09-23.25,12.58-36.24,16.25-8.19,2.31-16.56,4.64-24.29,8.27,11.23-10.66,27.28-15.69,41.64-20.68,10.33-3.58,21.12-7.83,30.35-14A86.69,86.69,0,0,1,360.37,74.67Zm101.33,159c-6.17-4.43-12.94-8.47-17.42-14.77-8.9-12.53-7.31-29-5.61-43.41,1-8.24,2-16.51,1.54-24.82a86.28,86.28,0,0,0-4-20.93c-.22-.69-.46-1.37-.69-2.06,1,1.24,2,2.5,3,3.8,5.1,6.88,9.29,14.5,11.31,22.87,2.41,10,1.22,20.41,1.53,30.6a69.59,69.59,0,0,0,5.91,26.39c3.74,8.47,8.83,16.21,13.49,24.18A105.62,105.62,0,0,1,478.28,251c-.9-1.47-1.86-2.91-2.9-4.3A61.54,61.54,0,0,0,461.7,233.66Zm53.21,20.56a44.63,44.63,0,0,1-21.26,28.69A60.08,60.08,0,0,0,507,245.23c-.06-12-4.57-23.12-10-33.68-6-11.69-11.83-22.89-14.78-35.79-.9-3.95-1.61-7.92-2.18-11.91.9,2.42,1.82,4.84,2.8,7.24,5.85,14.33,13.57,27.35,21.35,40.67C511.7,224.61,518.35,239,514.91,254.22Z"/></g></g></svg>