<svg xmlns="http://www.w3.org/2000/svg" xmlns:xlink="http://www.w3.org/1999/xlink" viewBox="0 0 551.72 1486.65"><defs><style>.cls-1{fill:#281616;}.cls-2{fill:url(#linear-gradient);}.cls-3{fill:url(#linear-gradient-2);}.cls-4{fill:url(#linear-gradient-3);}.cls-5{fill:#512525;}.cls-6{fill:#a55532;}.cls-7{fill:#f0bca4;}.cls-8{fill:#401e1d;}.cls-9{fill:#ff9d68;}.cls-10{fill:#fffefd;}.cls-11{fill:url(#linear-gradient-4);}.cls-12{fill:url(#linear-gradient-5);}.cls-13{fill:url(#linear-gradient-6);}.cls-14{fill:url(#linear-gradient-7);}.cls-15{fill:#d3896c;}.cls-16{fill:#3d2222;}</style><linearGradient id="linear-gradient" x1="421.32" y1="604.86" x2="527.24" y2="244.66" gradientUnits="userSpaceOnUse"><stop offset="0" stop-color="#ff9d68"/><stop offset="1" stop-color="#ee7a53"/></linearGradient><linearGradient id="linear-gradient-2" x1="441.82" y1="884.6" x2="432.24" y2="790.7" xlink:href="#linear-gradient"/><linearGradient id="linear-gradient-3" x1="269.42" y1="933.29" x2="312.21" y2="787.8" xlink:href="#linear-gradient"/><linearGradient id="linear-gradient-4" x1="406.57" y1="114.04" x2="301.16" y2="47.42" xlink:href="#linear-gradient"/><linearGradient id="linear-gradient-5" x1="371.93" y1="548.14" x2="371.93" y2="875.41" gradientUnits="userSpaceOnUse"><stop offset="0" stop-color="#f0c3ac"/><stop offset="1" stop-color="#d3896c"/></linearGradient><linearGradient id="linear-gradient-6" x1="218" y1="1370.94" x2="228.29" y2="1016.09" gradientUnits="userSpaceOnUse"><stop offset="0" stop-color="#683434"/><stop offset="1" stop-color="#512525"/></linearGradient><linearGradient id="linear-gradient-7" x1="453.56" y1="1195.14" x2="448.78" y2="949.07" xlink:href="#linear-gradient-6"/></defs><title>Asset 4</title><g id="Layer_2" data-name="Layer 2"><g id="Layer_1-2" data-name="Layer 1"><path class="cls-1" d="M349.19,16.14l-29.68,37.3L297.89,106s3.39,46.2,3.39,51.29-3.39,39-3.39,39,28.3,18.65,30.9,19.08,49.82,5.51,59.06,5.51,45.87-7.5,45.87-7.5l11.69-32.2-5.08-93.41L407.26,36.06,382.67,17.83Z"/><path class="cls-2" d="M328.28,135.87s14.05,62.5-6.3,74.79-68.12,28.79-80.41,31.76c0,0,14.71,78.24,10.89,101.14s1.7,57.22,25.65,75,21.2,90.29,0,132.89-44.3,202.63-46,310.31-27.14,117-39,161.09-3.4,234-22.05,271.3S155,1419.66,145.64,1434.92s-11.87,52.56,0,51.72,62-6.48,64.43-31.37c2.47-25.44-25.43-70.37-4.24-94.11s3.39-49.18,7.63-70.37,45.79-244.33,57.66-281.13S379.64,668.64,385.57,669s29.68,276.73,29.68,305.56,9.32,292.5,0,309.46-17,10.17-10.18,43.23,12.72,47.48,4.24,72.07c-7.29,21.15-2,32.89,12,47.08a14,14,0,0,0,16.77,2.42c11.53-6.43,29.75-18.41,29.75-30,0-17-19.5-124.19-9.33-197.33,9.66-69.43,41.49-185.3,32.34-274.48a97.33,97.33,0,0,1,1.54-29.49c10-48.92,37.13-203.26,6.82-313-36.46-131.92-67-137.86-45.78-188.73s38.15-182.28,38.15-182.28S401.68,220,398.29,206.42s-12.72-52.56-12.72-52.56Z"/><path class="cls-3" d="M415.25,974.55c0,28.83,9.32,292.5,0,309.46s-17,10.17-10.18,43.23,12.72,47.48,4.24,72.07c-7.29,21.15-2,32.89,12,47.08a14,14,0,0,0,16.77,2.42c11.53-6.43,29.75-18.41,29.75-30,0-17-19.5-124.19-9.33-197.33,9.66-69.43,41.49-185.3,32.34-274.48a97.33,97.33,0,0,1,1.54-29.49c7.61-37.19,25.1-135.28,19.74-228.38-37.25-.16-80.23-.33-122.41-.43C398.58,752.45,415.25,950.4,415.25,974.55Z"/><path class="cls-4" d="M210.07,1455.27c2.47-25.44-25.43-70.37-4.24-94.11s3.39-49.18,7.63-70.37,45.79-244.33,57.66-281.13c10-31.1,80.58-253.1,105.8-321-48.75-.11-95.52-.13-130,0-8.15,57.2-13.94,121.23-14.75,173.11-1.7,107.67-27.14,117-39,161.09s-3.4,234-22.05,271.3S155,1419.66,145.64,1434.92c-7.31,12-10.45,37.46-5.75,47.52l14,3.37C172.26,1483.51,208,1476.2,210.07,1455.27Z"/><path class="cls-5" d="M64.78,797c14.2-15.88,28.74-31.52,43.89-46.51,11.92-11.79,30.77-27.82,48.69-18.45,17,8.87,17,31.68,15.8,48-1.6,22-3.83,44-5.76,66-.78,9,13.21,8.91,14,0,2.19-25,5.77-50.26,6.23-75.33.36-19.67-5.51-42.42-24.84-51.63-20.63-9.83-42.54,1.69-57.9,15.61-17.81,16.15-34,34.45-50,52.35-6,6.7,3.88,16.62,9.9,9.89Z"/><path class="cls-6" d="M114.73,814.09,61.57,790.93a28.69,28.69,0,0,0-39.49,20.15L.37,909.89a15.88,15.88,0,0,0,9.16,18L56.3,948.21l46.78,20.38a15.86,15.86,0,0,0,19.38-5.51L180,879.88a28.68,28.68,0,0,0-12.13-42.63Z"/><path class="cls-5" d="M155.18,876.87c10.12-9.08,16.8-21,21.47-33.69a28.59,28.59,0,0,0-8.75-5.93l-53.17-23.16L61.57,790.93c-.78-.34-1.55-.63-2.33-.89-6.32,12.82-11.19,26.4-11.69,40.77a61,61,0,0,0,17.67,44.91C89.65,900.54,129.7,899.72,155.18,876.87Z"/><path class="cls-5" d="M77.2,876.05,48.91,945l7.39,3.21,6.51,2.84q14.55-35.47,29.11-70.94C95.65,871,80.89,867.08,77.2,876.05Z"/><path class="cls-7" d="M87.4,901.77a7.86,7.86,0,0,1-3.16-.66L68.3,894.19a8,8,0,0,1-4.12-10.46l3-7a8,8,0,0,1,10.46-4.12l15.94,6.93A7.93,7.93,0,0,1,97.74,890l-3,7A8,8,0,0,1,87.4,901.77Zm-12.88-26a4.15,4.15,0,0,0-3.8,2.48l-3,7a4.15,4.15,0,0,0,2.14,5.44l15.94,6.93a4.15,4.15,0,0,0,5.44-2.15l3-7A4.11,4.11,0,0,0,92.1,883l-15.94-6.93A4.16,4.16,0,0,0,74.52,875.77Z"/><polygon class="cls-8" points="402.48 1305.24 406.03 1412.08 447.96 1404.45 435.31 1306.95 402.48 1305.24"/><polygon class="cls-8" points="215.9 1331.1 210.22 1451.61 176.65 1451.61 176.65 1369.48 215.9 1331.1"/><path class="cls-9" d="M491.55,233.55s27.48,17.8,24.3,95.38c-4,97.62,9.61,136.92,13,221.71s-18.65,139-18.65,139l-54.26-72.91,28.18-61.34s-2.64-86.14-14.61-118.4-13.57-74.61-13.57-74.61l14.41-118.7Z"/><path class="cls-10" d="M551.57,554.13c-1.06-11.92-5.26-23.75-8.25-35.29q-5.24-20.12-10.46-40.24l-7.71-29.7a306.83,306.83,0,0,1-9.89-71c-.29-14.76-.15-30.86.59-49,3.18-77.58-24.3-95.38-24.3-95.38l-21.2,10.17-14.41,118.7s1.59,42.35,13.57,74.61c3.42,9.23,6.08,22.87,8.14,37.65q-.81,12.38-1.61,24.77c-.81,12.47-2.55,25.31-1.51,37.81.84,10.07,4,20,11.72,26.9s17.71,10.27,27.39,13.18c9,2.69,19.69,5.14,28.29,0C550.1,572.52,552.37,563,551.57,554.13Z"/><path class="cls-9" d="M241.57,242.42S213,255.17,211.77,296.5s3.18,158.33,0,177.41-44.51,125.48-55.32,197.75l-22.09,51.72a13.05,13.05,0,0,0,4.4,15.75c14.5,10.4,42.81,27.35,43.76,1.84,1.27-34.33-14-40.69,0-68S260.73,497.44,263.91,479,269,374.71,269,374.71l13.35-106.19Z"/><path class="cls-10" d="M453.4,415.83c21.19-50.87,38.15-182.28,38.15-182.28s-26.74-4-51.6-9.91a8.08,8.08,0,0,1-6.11-7.89v-.07c-.37-21.55-20.67-32.72-40.28-29.19-6.51,1.17-12.3,4.24-18.52,6.33-6.85,2.3-10.33,2.75-17.64,2.37a52.91,52.91,0,0,1-13.91-3.25c-7-3.11-12.82-8.23-20.48-10-21.38-4.82-34.62,13.2-39.92,31.23a16.46,16.46,0,0,0-.28,8.09,8,8,0,0,1-5,9.09c-15.67,5.86-30.22,10.57-36.25,12,0,0,14.71,78.24,10.89,101.14s1.7,57.22,25.65,75c17.58,13.07,20.77,55.62,12.84,94.18,38.48-.5,125.6-2.19,174.2-7.49C447.73,463.05,439.59,449,453.4,415.83Z"/><path class="cls-11" d="M343.5,19.53s-50,24.73-34.82,79.22c13.55,48.79,19.83,68.87,75.29,84.12a27.93,27.93,0,0,0,32.71-15.16C424,151.91,432,129,430.3,106.32c-3-40.37-.84-85.81-45.42-91.84C356.87,10.7,343.5,19.53,343.5,19.53Z"/><path class="cls-12" d="M455.78,482.6c-77.76,28.06-160.91,6.2-161.37,6.08,0,0-31.09,84.52-44,112C223.57,657.94,219,782.15,219,782.15s19.16,12,53.21,17.36h.06c15.88,3.44,37.15,6.54,64.3,7.46,0,0,27,2.48,65.47-1.85a766.79,766.79,0,0,0,81.72-11.59h0c3.12-.6,37.92-7.15,37.92-7.15C542.07,650.73,455.78,482.6,455.78,482.6Z"/><path class="cls-13" d="M231.87,872.08h0c-3.11,98-27.27,108.16-38.75,150.8-11.87,44.08-3.4,234-22.05,271.3S155,1419.66,145.64,1434.92s-11.87,52.56,0,51.72,62-6.48,64.43-31.37c2.47-25.44-25.43-70.37-4.24-94.11s3.39-49.18,7.63-70.37,45.79-244.33,57.66-281.13c4.33-13.44,20-62.51,38.35-119.39C256.61,902.6,231.87,872.08,231.87,872.08Z"/><path class="cls-14" d="M500.57,872.08h0c-51.25,39.9-92,7.22-92,7.21,3.88,46.72,6.65,85.42,6.65,95.26,0,28.83,9.32,292.5,0,309.46s-17,10.17-10.18,43.23,12.72,47.48,4.24,72.07c-7.29,21.15-2,32.89,12,47.08a14,14,0,0,0,16.77,2.42c11.53-6.43,29.75-18.41,29.75-30,0-17-19.5-124.19-9.33-197.33,9.66-69.43,41.49-185.3,32.34-274.48a97.33,97.33,0,0,1,1.54-29.49C494.54,906.85,497.53,891.19,500.57,872.08Z"/><path class="cls-10" d="M241.57,242.42S213,255.17,211.77,296.5s3.18,158.33,0,177.41c-.81,4.82-4,15.21-8.61,29.21L186.38,536.4c-7.68,15.23-23.4,37-12.67,54.35,3.85,6.22,10.79,10.15,18.15,9.37,4.3-.45,7.86-2.63,11.92-3.86,5.05-1.52,8.62.78,13.44,2,19.49,4.77,23.32-19.69,26.94-33.09q10.13-37.39,16.62-75.63A81.14,81.14,0,0,0,263.91,479c3.18-18.44,5.09-104.29,5.09-104.29l13.35-106.19Z"/><path class="cls-8" d="M210.07,1455.27c.52-5.37-.32-11.61-1.75-18.33-.38-.24-.76-.48-1.14-.7-26.71-15.26-59.9-5.09-59.9-5.09h0a18.9,18.9,0,0,1-1.64,3.77c-9.33,15.26-11.87,52.56,0,51.72S207.66,1480.16,210.07,1455.27Z"/><path class="cls-8" d="M175.91,1278.62c-1.37,6.52-3,11.82-4.84,15.56-.27.54-.53,1.09-.79,1.65a84.48,84.48,0,0,0,42.92,9.31,47.1,47.1,0,0,1,.26-14.35c.17-.83.39-2,.67-3.39A66.85,66.85,0,0,1,175.91,1278.62Z"/><path class="cls-8" d="M438.06,1448.81c11.53-6.43,29.75-18.41,29.75-30,0-3.33-.75-10.15-1.88-19.5-29.3-9-56.62,0-56.62,0-7.29,21.15-2,32.89,12,47.08A14,14,0,0,0,438.06,1448.81Z"/><path class="cls-8" d="M455.83,1288c-.17-5.64-.27-11.29-.28-16.9a51.89,51.89,0,0,1-37.71-3c-.63,8.3-1.48,13.89-2.59,15.93l-.46.79A68.6,68.6,0,0,0,455.83,1288Z"/><path class="cls-10" d="M452.22,438.15a48.19,48.19,0,0,1-1.05-16.6c.67-1.85,1.41-3.74,2.23-5.72,21.19-50.87,38.15-182.28,38.15-182.28s-26.74-4-51.6-9.91a8.08,8.08,0,0,1-6.11-7.89v-.07c-.37-21.55-20.67-32.72-40.28-29.19-6.51,1.17-12.3,4.24-18.52,6.33-6.85,2.3-10.33,2.75-17.64,2.37a52.91,52.91,0,0,1-13.91-3.25c-7-3.11-12.82-8.23-20.48-10-21.38-4.82-34.62,13.2-39.92,31.23a16.46,16.46,0,0,0-.28,8.09,8,8,0,0,1-5,9.09c-15.67,5.87-30.22,10.57-36.25,12,0,0,14.71,78.24,10.89,101.14s1.7,57.22,25.65,75c3.75,2.78,6.83,6.91,9.3,12.05a49.45,49.45,0,0,1,0,18.9C285.71,458.29,282,467,284,476c2.43,10.67,14.22,17,24.84,15.7,25.93,4.65,82.78,11.24,138.51-6.3.32,0,.63-.07,1-.13a22.12,22.12,0,0,0,7.23-2.63l.2-.07h0l0,0c5.27-3.11,9.08-8.37,8.94-14.9-.11-5-2.63-9.3-5.21-13.38A53.31,53.31,0,0,1,452.22,438.15Z"/><path class="cls-15" d="M266.33,562.57h0c60.42-12.72,60.37-68.17,60.37-68.17h0a264.13,264.13,0,0,1-32.29-5.72S279.71,528.65,266.33,562.57Z"/><path class="cls-15" d="M487.52,557.73c-16.29-45-31.74-75.13-31.74-75.13a229.36,229.36,0,0,1-35.55,9.59C420.32,492.48,440.5,555.45,487.52,557.73Z"/><path class="cls-16" d="M399.74,13.72a5.14,5.14,0,0,0-3.26-5.39C371.2-3.38,341.28-3,317,11.23a86.34,86.34,0,0,0-41,60.34c-2.42,14.73-2.05,29.62-2.31,44.5-.09,5.07-.34,10-.84,14.94-3.95,8.28-7.9,16.57-11.54,25-4.33,10-7.1,20.08-5.21,31,.26,1.51.67,3.37,1.21,5.43a45,45,0,0,0,.2,8A45.94,45.94,0,0,0,273.6,230c21.56,18.05,54.61,11.1,68.24-13.21,2.31-4.11-.36-8-3.8-9.16a6.51,6.51,0,0,0-6.93-.86c-.32.14-.64.26-.94.36a149.19,149.19,0,0,1-16.36-44.21q-.31-3.36-.66-6.7c-2.2-21-5.8-42.35,9.49-59.44A90.17,90.17,0,0,1,339.3,82.64c7.24-2.5,14.61-4.7,21.35-7.55,13.94-5.88,27.56-16.49,29.63-31.79a54.28,54.28,0,0,0,10.06-26.21A5.69,5.69,0,0,0,399.74,13.72ZM258.27,174.51c1.2-9.4,5.48-18,9.45-26.49q2-4.26,4-8.53a113,113,0,0,1-5.48,21c-2.78,7.51-5.85,15.1-7.6,22.91A37.34,37.34,0,0,1,258.27,174.51Zm69.19,33c-7-.57-10.09-13.06-10.82-18.26-.45-3.18-.82-6.37-1.17-9.57A151.18,151.18,0,0,0,327.46,207.49ZM348.16,77c7.91-4.86,16-9.48,23.41-15a90.36,90.36,0,0,0,15.15-14C381.78,63.58,363.61,71.64,348.16,77Z"/><path class="cls-16" d="M458.49,148.91c-2.19-18.07-6.55-36-10.93-53.8-.61-17-2-34.13-8.85-49.83C431.5,28.74,417.92,14.61,400,10.35a6.08,6.08,0,0,0-5.12.94,5.47,5.47,0,0,0-6.11,4.54C385,33.42,393.59,49,404.69,62.06c6.32,7.43,13.55,14.2,18.87,22.43a73,73,0,0,1,9.19,21.43c.8,9.31-.65,18.81-2.12,28.19-2.12,13.44-3.67,28.77,1.71,41.16-1,7.34-2.31,14.82-5.68,21.4a28.68,28.68,0,0,1,7.18,19v.07a8.08,8.08,0,0,0,6.11,7.89l3.15.73c7.53-7.63,10.74-19,11.13-30.14,0-.46,0-.92,0-1.38C459.57,179.1,460.29,163.75,458.49,148.91Zm-4.17,35.61c-.24-18.32-2.65-36.94-4.44-55q-.84-8.44-1.76-16.88L448,108c2.66,11.34,5.15,22.71,7,34.15C457.26,156.14,457.8,170.9,454.32,184.52Zm-19.09-65.14c.22,2,.41,4,.53,6l.18,4.22c.38,13.61-1.3,27.35-3,40.77l0,.17C428.13,155,433.65,135.5,435.23,119.38Z"/></g></g></svg>