<svg xmlns="http://www.w3.org/2000/svg" xmlns:xlink="http://www.w3.org/1999/xlink" viewBox="0 0 623.64 1577.19"><defs><style>.cls-1{fill:url(#linear-gradient);}.cls-2{fill:url(#linear-gradient-2);}.cls-3{fill:#271647;}.cls-4{fill:url(#linear-gradient-3);}.cls-5{fill:#fffdfd;}.cls-6{fill:url(#linear-gradient-4);}.cls-7{fill:#45b2c4;}.cls-8{fill:#379db5;}.cls-9{fill:url(#linear-gradient-5);}.cls-10{fill:url(#linear-gradient-6);}.cls-11{fill:url(#linear-gradient-7);}.cls-12{fill:url(#linear-gradient-8);}.cls-13{fill:url(#linear-gradient-9);}.cls-14{fill:url(#linear-gradient-10);}.cls-15{fill:url(#linear-gradient-11);}.cls-16{fill:#a5f2f2;}.cls-17{fill:url(#linear-gradient-12);}.cls-18{fill:url(#linear-gradient-13);}.cls-19{fill:url(#linear-gradient-14);}.cls-20{fill:url(#linear-gradient-15);}.cls-21{fill:#2f254c;}</style><linearGradient id="linear-gradient" x1="621.33" y1="1456.94" x2="568.46" y2="1381.98" gradientUnits="userSpaceOnUse"><stop offset="0" stop-color="#593e3e"/><stop offset="1" stop-color="#442c2c"/></linearGradient><linearGradient id="linear-gradient-2" x1="152.99" y1="1543.76" x2="157.08" y2="1485.15" xlink:href="#linear-gradient"/><linearGradient id="linear-gradient-3" x1="286.73" y1="667.43" x2="5.6" y2="462.28" gradientUnits="userSpaceOnUse"><stop offset="0" stop-color="#f28f8f"/><stop offset="1" stop-color="#e27474"/></linearGradient><linearGradient id="linear-gradient-4" x1="168.18" y1="704.27" x2="156.68" y2="405.96" gradientUnits="userSpaceOnUse"><stop offset="0" stop-color="#379db5"/><stop offset="1" stop-color="#208ba8"/></linearGradient><linearGradient id="linear-gradient-5" x1="711.34" y1="1311" x2="-1.26" y2="791.01" xlink:href="#linear-gradient-3"/><linearGradient id="linear-gradient-6" x1="454.86" y1="1270.07" x2="330.22" y2="946" gradientUnits="userSpaceOnUse"><stop offset="0" stop-color="#9e6e6e"/><stop offset="0.88" stop-color="#7f5352"/></linearGradient><linearGradient id="linear-gradient-7" x1="468.09" y1="1078.91" x2="-115.91" y2="652.76" xlink:href="#linear-gradient-3"/><linearGradient id="linear-gradient-8" x1="388.83" y1="141.46" x2="255.16" y2="43.92" xlink:href="#linear-gradient-3"/><linearGradient id="linear-gradient-9" x1="212.37" y1="1038.3" x2="254.86" y2="611.93" xlink:href="#linear-gradient-6"/><linearGradient id="linear-gradient-10" x1="213.98" y1="1427.15" x2="4.35" y2="1274.18" xlink:href="#linear-gradient"/><linearGradient id="linear-gradient-11" x1="461.45" y1="1308.58" x2="384.51" y2="1150.9" xlink:href="#linear-gradient"/><linearGradient id="linear-gradient-12" x1="172.84" y1="538.69" x2="194.32" y2="323.07" xlink:href="#linear-gradient-4"/><linearGradient id="linear-gradient-13" x1="355.26" y1="636.94" x2="356.43" y2="299.82" xlink:href="#linear-gradient-4"/><linearGradient id="linear-gradient-14" x1="555.7" y1="542.96" x2="309.04" y2="362.97" xlink:href="#linear-gradient-3"/><linearGradient id="linear-gradient-15" x1="517.54" y1="523.92" x2="405.24" y2="277.77" xlink:href="#linear-gradient-4"/></defs><title>Asset 3</title><g id="Layer_2" data-name="Layer 2"><g id="Layer_1-2" data-name="Layer 1"><path class="cls-1" d="M584.81,1349.16l38.83,130.38s-7.2,11.65-19.41,9.15L555.39,1393Z"/><path class="cls-2" d="M176.42,1458.46l-17.22,111.8s-9.57,5.41-18.31,0V1466.63Z"/><path class="cls-3" d="M307.94,33.76,239.29,134.47s3.14,74.17,4,74.12,29.15,23.62,29.15,23.62l99.74,0,21.53-7.86,20.63-31.45-9.57-63.44-20-85.73L334,22.73Z"/><path class="cls-4" d="M185.72,253.42s-32.55,5.07-41.7,19.22S120.71,458.25,116.55,494s-4.16,200.6-13.32,246.38-19.14,74.91-19.14,74.91,3.33,52.44,27.47,64.09,20.81.83,26.63-36.63,15.46-87.58,12.27-106.53c-7.27-43.29,66.38-269.68,66.38-269.68Z"/><path class="cls-5" d="M109.67,667.5a485.08,485.08,0,0,1-9.15,71.84c-2,9.74-7.49,28.75-12.7,38.95,8.75,9.06,36.79,27.12,59.1,29.34,3.65-24,5.43-60.15,3.54-71.37-2.19-13,2.95-42.59,11.19-77.59Z"/><path class="cls-6" d="M155.64,686.07c16.16-81.06,61.2-219.49,61.2-219.49L185.72,253.42s-32.55,5.07-41.7,19.22S120.71,458.25,116.55,494c-2.94,25.29-3.8,115-7.29,181.61A130.12,130.12,0,0,0,155.64,686.07Z"/><path class="cls-7" d="M109.89,671.57,104.26,708s23.32,15.13,46.2,12.14,11.19-46,11.19-46Z"/><path class="cls-8" d="M124.42,672.29a184.4,184.4,0,0,0-5.65,42.86c.8.31,1.63.62,2.48.92A181.72,181.72,0,0,1,127,672.41Z"/><path class="cls-8" d="M106.37,709.22c.66.38,1.46.83,2.4,1.32a165.13,165.13,0,0,1,7.31-38.66l-2.58-.13A167.83,167.83,0,0,0,106.37,709.22Z"/><path class="cls-8" d="M120.55,672.1,118,672a364.17,364.17,0,0,0-6,40.24c.76.36,1.55.73,2.39,1.11A357.73,357.73,0,0,1,120.55,672.1Z"/><path class="cls-9" d="M172.32,553.14s-15,63.26-15.82,94.05,25,187.28,46.61,224.74,258,427.82,279.67,479.42,28.3,112.37,16.65,133.18-43.28,50.77-25.81,54.93S555.19,1552,559.36,1512s-11.66-64.09,9.15-99,32.46-63.26-5.82-85.73-49.11-10-67.42-62.43-51.61-181.45-84.9-224.73-42.45-43.28-50.78-116.53-34.12-149.82-34.12-149.82S248.06,572.28,246.4,569,172.32,553.14,172.32,553.14Z"/><path class="cls-10" d="M172.32,553.14s-15,63.26-15.82,94.05,25,187.28,46.61,224.74,258,427.82,279.67,479.42,28.3,112.37,16.65,133.18-43.28,50.77-25.81,54.93S555.19,1552,559.36,1512s-11.66-64.09,9.15-99,32.46-63.26-5.82-85.73-49.11-10-67.42-62.43-51.61-181.45-84.9-224.73-42.45-43.28-50.78-116.53-34.12-149.82-34.12-149.82S248.06,572.28,246.4,569,172.32,553.14,172.32,553.14Z"/><path class="cls-11" d="M267.94,144.05s10.73,57,0,71.16-39,29.13-75.65,36.62S165.66,276,158.17,310.1s-37.46,54.1-16.65,101.54,34.13,108.21,30.8,141.5,71.58,165.64,73.24,175.62S139.86,946,134,994.28s-26.63,394.53-39.12,427-37.46,93.87-55.77,104S-.81,1539.46,0,1556.11s7.49,22.47,44.12,20.81,63.26,3.33,70.75-15,30.79-76.58,53.27-91.56-1.67-61.59-13.32-74.08,27.47-125.68,46.61-196.43,31.63-164.8,27.47-191.44S333.79,880.25,380.4,782s28.3-170.63,5.83-199.76-54.1-68.25-28.3-119.85,75.74-200.6,75.74-200.6-72.41-6.66-83.23-42.45a434.77,434.77,0,0,1-14.15-66.59Z"/><path class="cls-12" d="M300.71,5c37.44-9.25,76.3,11,89.17,47.37a64,64,0,0,1,3.74,18.74c1.52,36.76-24.32,121.85-52.58,121.85-48.49,0-73.64-35-82.52-78.73C251.51,79.66,247.92,18,300.71,5Z"/><path class="cls-13" d="M386.23,582.27C371.94,563.75,354,541.19,349.38,514,279.46,542,207,532.55,172,525.09a150.55,150.55,0,0,1,.35,28C169,586.43,243.9,718.78,245.56,728.76S139.86,946,134,994.28s-26.63,394.53-39.12,427-37.46,93.87-55.77,104S-.81,1539.46,0,1556.11s7.49,22.47,44.12,20.81,63.26,3.33,70.75-15,30.79-76.58,53.27-91.56-1.67-61.59-13.32-74.08,27.47-125.68,46.61-196.43,31.63-164.8,27.47-191.44S333.79,880.25,380.4,782,408.7,611.4,386.23,582.27Z"/><path class="cls-5" d="M172.32,553.14S159.44,597.39,157,636.83c47.94,15.28,132.7,27.95,248.43-10.17-4.28-19.39-11.47-34.42-19.16-44.39-22.47-29.13-54.1-68.25-28.3-119.85s75.74-200.6,75.74-200.6-55-5.06-76.28-30c-71.62,38-102.83-4.37-102.83-4.37-14.29,9.94-36.16,19.08-62.27,24.42-36.62,7.49-26.63,24.14-34.12,58.27s-37.46,54.1-16.65,101.54S175.65,519.85,172.32,553.14Z"/><path class="cls-7" d="M414,739.34s-8,38.12-11.78,41.86c-3.32,3.33-79.43,8.95-102.61.56a8.83,8.83,0,0,1-5.78-8.74l1.57-33.68Z"/><path class="cls-7" d="M203.84,738.75s5,33.71,0,37-60.87,9.28-75-13c0,0-2.9-22.32-2.92-38.14l54.52-10Z"/><path class="cls-5" d="M376.86,644.61c-3.25-8.93-6.39-18-10.17-26.71-3.28-7.55-8.31-13.1-16.26-15.74-8.57-2.85-18.45-2.71-27.38-3.23q-15.78-.91-31.6-1a585.2,585.2,0,0,0-61.52,3c-18.24,1.85-40.77,2.53-52.29,19.14-5.7,8.22-8,18.59-10.61,28.08q-4.72,16.95-8.91,34.06c-1.27,5.2,6.75,7.42,8,2.21l.06-.26c9.59,9.18,23.74,11.54,36.88,10.24,10-1,19.72-3.65,29.7-4.62s19,.67,28.44,3.62c8.89,2.79,17.58,6.11,26.79,7.73a101.82,101.82,0,0,0,25.44,1.31,104.79,104.79,0,0,0,46.94-15c6.72-4.15,14.74-9.34,18.59-16.47C383.66,662.24,380,653.11,376.86,644.61Z"/><path class="cls-8" d="M338.47,786.12a352.93,352.93,0,0,0,1.59-46.78h-2.5A350.64,350.64,0,0,1,336,786.08Z"/><path class="cls-8" d="M305.25,783.32c.79.18,1.62.34,2.47.5l2.07-44.48h-2.5Z"/><path class="cls-8" d="M328.35,785.85A172.52,172.52,0,0,0,330,739.34h-2.49a171.26,171.26,0,0,1-1.7,46.39Z"/><path class="cls-8" d="M317.36,785.1a152,152,0,0,0-1.23-45.76H313.6a149,149,0,0,1,1.3,45.5C315.71,784.94,316.53,785,317.36,785.1Z"/><path class="cls-8" d="M404.43,739.59a1.9,1.9,0,0,0,0-.25H402a2,2,0,0,0,0,.25,155.16,155.16,0,0,1-2.41,30.73q-1.15,6.25-2.82,12.4c1-.17,1.94-.35,2.71-.52.58-2.2,1.12-4.4,1.6-6.63A157,157,0,0,0,404.43,739.59Z"/><path class="cls-8" d="M301.55,739.34h-2.49l-2.22,40.76a8.32,8.32,0,0,0,2.41,1.51Q300.4,760.47,301.55,739.34Z"/><path class="cls-8" d="M395.55,739.34a178.43,178.43,0,0,1-9.78,44.77l2.71-.29A181,181,0,0,0,398,739.34Z"/><path class="cls-8" d="M387.59,744.58a1.25,1.25,0,0,0-2.5,0,101,101,0,0,1-8.15,40.29l2.78-.22A103.93,103.93,0,0,0,387.59,744.58Z"/><path class="cls-8" d="M377.48,743.47A169,169,0,0,1,372,785.21l2.63-.18A171.5,171.5,0,0,0,380,743.47,1.25,1.25,0,0,0,377.48,743.47Z"/><path class="cls-8" d="M359.56,785.83a329.29,329.29,0,0,0,1.08-45.41,1.2,1.2,0,0,0-.75-1.08h-1.11a1.07,1.07,0,0,0-.64,1.08,329,329,0,0,1-1.09,45.5Z"/><path class="cls-8" d="M371.51,744.55c.14-1.6-2.36-1.59-2.49,0a339.34,339.34,0,0,1-6,41.14l2.57-.12A343.51,343.51,0,0,0,371.51,744.55Z"/><path class="cls-8" d="M346.64,786.13a120.41,120.41,0,0,0,5.62-46.53,1.09,1.09,0,0,0,0-.26h-2.45a1.13,1.13,0,0,0,0,.26A118.83,118.83,0,0,1,344,786.15Z"/><path class="cls-8" d="M160.28,735.69c-.14-1.59-2.64-1.6-2.5,0q1.86,21.07,2,42.23c.83.12,1.66.23,2.5.33Q162.14,756.94,160.28,735.69Z"/><path class="cls-8" d="M137.06,770.6a138,138,0,0,1-4.88-47.15l-2.54.47a140.18,140.18,0,0,0,4.21,44.41A30.22,30.22,0,0,0,137.06,770.6Z"/><path class="cls-8" d="M198.15,736.81q.51,12.77.34,25.55c-.07,4.18.5,10-.28,15,.89-.16,1.69-.33,2.41-.5.31-3.26.19-6.62.26-9.61q.39-15.24-.23-30.49C200.59,735.21,198.09,735.2,198.15,736.81Z"/><path class="cls-8" d="M138.83,727.1c.14-1.6-2.35-1.59-2.5,0a116.86,116.86,0,0,0,4.82,45.69c1,.46,2,.88,3,1.28A115.18,115.18,0,0,1,138.83,727.1Z"/><path class="cls-8" d="M176.54,737.09c-.12-1.59-2.62-1.61-2.5,0a374.58,374.58,0,0,1,.94,42h2.5A374.81,374.81,0,0,0,176.54,737.09Z"/><path class="cls-8" d="M166.83,734.31c-.18-1.57-2.68-1.59-2.5,0q2.58,22.14,2.94,44.42l2.5.16Q169.4,756.54,166.83,734.31Z"/><path class="cls-8" d="M146.16,730.71a1.25,1.25,0,0,0-2.49,0,199.75,199.75,0,0,0,6.19,45.2q1.37.38,2.76.69A197.42,197.42,0,0,1,146.16,730.71Z"/><path class="cls-8" d="M194.83,735.18c-.2-1.57-2.69-1.59-2.5,0a147,147,0,0,1-.94,43.18q1.35-.14,2.58-.3A148.79,148.79,0,0,0,194.83,735.18Z"/><path class="cls-8" d="M187,732.65a1.25,1.25,0,0,0-2.5,0q.57,23.18-1,46.29l2.51-.13Q187.53,755.77,187,732.65Z"/><path class="cls-8" d="M154.19,729a1.25,1.25,0,0,0-2.49,0,478.32,478.32,0,0,0,2.36,47.88c.84.17,1.69.34,2.54.49A482.17,482.17,0,0,1,154.19,729Z"/><path class="cls-14" d="M114.89,1561.94c7.49-18.31,30.79-76.58,53.27-91.56s5.46-63.54-6.19-76,28-115.7,47.17-186.45c4.94-18.27,9-44.72,12.77-66.25a7.3,7.3,0,0,0-7.59-8.52c-34.8,1.76-71.9-5.57-92.52-11.71a7.28,7.28,0,0,0-9.33,6.47c-8.19,117.88-9.54,272.52-17.56,293.37-12.49,32.46-37.46,93.87-55.77,104S-.81,1539.46,0,1556.11s7.49,22.47,44.12,20.81S107.4,1580.25,114.89,1561.94Z"/><path class="cls-15" d="M562.69,1327.22c-38.29-22.48-49.11-10-67.42-62.43-11.95-34.2-23.92-103.51-44-158a4.12,4.12,0,0,0-6.92-1.32c-23.16,25.41-56.3,40.24-76.14,45.25a4.11,4.11,0,0,0-2.51,6.08c54.34,91.7,107.79,172.53,117,194.58,21.64,51.61,28.3,112.37,16.65,133.18s-43.28,50.77-25.81,54.93S555.19,1552,559.36,1512s-11.66-64.09,9.15-99S601,1349.69,562.69,1327.22Z"/><path class="cls-16" d="M197.69,270.17c53.24-11.06,110.88,27.3,161.32-3.26,4.58-2.77.4-10-4.2-7.19-22.21,13.46-49.43,12.09-74.15,8.16-28.21-4.48-56.61-11.67-85.18-5.73-5.24,1.09-3,9.11,2.21,8Z"/><path class="cls-16" d="M196.87,290.51c7.46,8.39,18.37,11.81,29,14a256.92,256.92,0,0,0,38.88,4.93,259.32,259.32,0,0,0,78.93-8.3c5.18-1.36,3-9.39-2.21-8a251.63,251.63,0,0,1-73.61,8.13,243.68,243.68,0,0,1-36.73-4.16c-10.26-2-21.18-4.32-28.41-12.46-3.57-4-9.44,1.89-5.89,5.88Z"/><path class="cls-16" d="M185,329.3a251.35,251.35,0,0,0,161.21,6.49c5.12-1.52,2.94-9.55-2.22-8a243.77,243.77,0,0,1-156.78-6.49c-5-1.93-7.16,6.11-2.21,8Z"/><path class="cls-16" d="M187.38,366.36c47.36,25.26,105.48,26.51,153.94,3.53,4.84-2.3.62-9.48-4.2-7.19-45.65,21.66-101,20.24-145.54-3.52-4.72-2.52-8.93,4.66-4.2,7.18Z"/><path class="cls-16" d="M179.83,412.48q40.65,9.07,82,14.52c12.57,1.66,26.36,4.16,38.66-.27,9.48-3.41,17.74-10.59,20-20.71,1.17-5.22-6.86-7.45-8-2.22-2.2,9.85-11.63,15.22-21,16.59-11.94,1.74-24.75-1-36.57-2.67Q218.2,412.56,182,404.45c-5.22-1.16-7.45,6.86-2.21,8Z"/><path class="cls-16" d="M177.27,457.94a431.14,431.14,0,0,0,157.09,5c5.28-.8,3-8.82-2.21-8a420,420,0,0,1-152.66-5c-5.23-1.14-7.46,6.88-2.22,8Z"/><path class="cls-16" d="M196.65,504.3A146.67,146.67,0,0,0,308.21,514c5.08-1.63,2.91-9.67-2.21-8a138.13,138.13,0,0,1-105.15-8.85c-4.74-2.47-9,4.71-4.2,7.18Z"/><path class="cls-16" d="M195.66,544.6c38.29,21.88,85.91,23.92,126,5.81,4.88-2.2.65-9.37-4.2-7.19-37.35,16.85-82.13,14.49-117.65-5.8-4.66-2.66-8.85,4.52-4.2,7.18Z"/><path class="cls-16" d="M190.13,601.19c43.63,14.62,96.46,29.65,136.4-2.41,4.17-3.35-1.75-9.21-5.89-5.88-37.11,29.79-88.21,13.7-128.3.26-5.09-1.7-7.27,6.33-2.21,8Z"/><path class="cls-16" d="M192.46,650.78a596.56,596.56,0,0,0,79.87,2.09c20.63-.86,50-.48,59.94-22.84,2.17-4.85-5-9.09-7.19-4.2-4.24,9.5-13.49,14.16-23.27,16.19-11.68,2.43-24.12,2.4-36,2.76a594.75,594.75,0,0,1-73.35-2.33c-5.33-.49-5.29,7.83,0,8.33Z"/><path class="cls-17" d="M239.29,236.28s-29,90.46-34.58,138.74S222,549,216.84,643.87s-13,94.88-13,94.88-47.08,9.16-77.94-14.15c0,0-1.47-317.71,9.16-357.38S167,258.16,167,258.16Z"/><path class="cls-18" d="M363,237.32S294.1,346,284,439.6s-9.78,248.55,11.44,299.74c0,0,96.13,15,118.6,0,0,0,17.39-56.38,0-127.34s-36.65-155.33-4.59-244.33,24.24-105.85,24.24-105.85S391.61,257.77,363,237.32Z"/><path class="cls-19" d="M433.67,261.82s17.48-2.5,44.95,35,119,169,120.69,181.45S551,539.82,516.49,549.81s-120.74,28.85-128.6,26.64-34.95-8.33-46.61-23.31-69.08-7.49-67.42-20,20.81-24.13,37.46-25,41.62,11.66,57.43,26.64,65.75,0,84.07-8.32,75.74-43.84,70.47-54.94c-5-10.63-91.6-101-129.61-110.7s-64.88-25-64.88-25Z"/><path class="cls-5" d="M438.42,532.05h0c-19.61,6.58-57.54,1.48-73-4.71-2.34,6.37-15.89,29.35-16.44,41.31a170.92,170.92,0,0,0,41.72,10.4c18.7,2.3,45.86-1.9,82.58-10.4Z"/><path class="cls-7" d="M438.42,532.05l-19.32,1.53s4.27,34.42,8.71,44.94a3.49,3.49,0,0,0,3.79,2.1l23.49-4Z"/><path class="cls-20" d="M599.31,478.23c-1.67-12.49-93.22-144-120.69-181.45s-44.95-35-44.95-35L328.8,335.9s26.88,15.31,64.88,25,124.56,100.07,129.61,110.7c5.27,11.1-52.16,46.61-70.47,54.94-3.69,1.67-8.67,3.62-14.4,5.54,1.1,11.21,8.92,37.68,11.68,49,26.38-5.62,59.09-20,74.77-27.88C557.89,536.49,601,490.71,599.31,478.23Z"/><path class="cls-8" d="M420.71,545.24c.12.81.25,1.64.38,2.49A64.09,64.09,0,0,0,443.27,545l-.88-2.35A61.63,61.63,0,0,1,420.71,545.24Z"/><path class="cls-8" d="M419.68,538c.11.76.22,1.6.35,2.51a87.53,87.53,0,0,0,21.27-.79l-.89-2.38A84.6,84.6,0,0,1,419.68,538Z"/><path class="cls-8" d="M444.22,547.55a65.41,65.41,0,0,1-22.54,3.87c.13.83.27,1.66.41,2.51a67.1,67.1,0,0,0,23-4Z"/><path class="cls-8" d="M450.07,563.2l-.87-2.33A45.48,45.48,0,0,1,424,564.26c.17.88.36,1.75.54,2.6A48,48,0,0,0,450.07,563.2Z"/><path class="cls-8" d="M444.54,573.5A34.39,34.39,0,0,0,453,571l-.89-2.36a33.62,33.62,0,0,1-9.43,2.6,127.61,127.61,0,0,1-16.81,1.27c.23.87.47,1.71.7,2.49A121,121,0,0,0,444.54,573.5Z"/><path class="cls-8" d="M447.17,555.44l-.87-2.34a53.29,53.29,0,0,1-23.5,4.9c.14.83.3,1.66.45,2.49A56,56,0,0,0,447.17,555.44Z"/><path class="cls-7" d="M270.89,208.59s-47.19,12.86-60.09,22.85-36.62,38.7-36.62,38.7,40.7,35.29,38.25,63c0,0,16.48-72.94,31.8-89.5C249.8,237.63,267.71,223.06,270.89,208.59Z"/><path class="cls-7" d="M350.44,219.37a194.16,194.16,0,0,1,30.16,8c14.15,5.28,27.88,34.41,33.71,49,0,0-82.45,31.12-100.32,56.76C314,333.15,358.56,237.27,350.44,219.37Z"/><path class="cls-5" d="M361.72,202c-3-3.78-7.28-4.37-11.7-3.24-5.93,1.52-11.21,3.21-17.41,3.21-11.77,0-23.1-3.73-33.87-8.15-5.38-2.21-10.66-4.63-16-6.92-4.91-2.11-9.93-4.5-15.36-4.77-5.09-.26-10.31,1.51-13.51,5.6s-3.54,9.62-3.49,14.78c.16,14.2.53,28.4.79,42.6.1,5.35,8.43,5.37,8.33,0l0-1.52a90.27,90.27,0,0,0,52.63,13.78c19.64-1.06,41.76-8.8,50.22-28.11C365.8,221.36,367.48,209.41,361.72,202Z"/><path class="cls-21" d="M433.37,203.33c-1.82-12.11-8.81-22.75-13.49-33.86-.75-1.77-1.45-3.54-2.14-5.33C410.3,123.32,416.53,79.4,395.09,42,385.29,25,370.22,8.91,350.5,4.13a90,90,0,0,0-70,6.79C261,21.7,246.66,39.46,239.18,60.32c-4.25,11.84-6.61,24.23-10,36.34-.34,1.24-.71,2.45-1.09,3.67q-4.44,7.71-9.48,15.06c-7.44,10.76-16.79,20.3-23.37,31.63-11.45,19.71-8.3,45.7,9.73,60.48a47.52,47.52,0,0,0,17.47,9.05C237,225.63,255.22,229.3,272,232.19c.13,0,.25,0,.37,0h.51c2.13-.09,4-2.32,3.22-4.36a2.57,2.57,0,0,0-1.41-1.79c-9.18-8.92-12.17-23.75-11.69-36.07.62-15.87,11.45-28.47,18.45-42.06a75.26,75.26,0,0,0,7.91-23c1.3-8.44,1.27-17.08,3.1-25.43l.33-1.36a42.21,42.21,0,0,1,5-5.55c7.37-6.85,16.89-9.95,26.22-13.13C337.57,74.86,354.5,67,355.37,51c2,8.16,8,15.21,14.46,20.81,5,4.36,10.58,8.43,14.58,13.81a35,35,0,0,1,6.38,17.77c1.11,11.73-1.16,23.45-1.08,35.18-2.54,7-5,14-5.6,21.15-.83,9.29,2.29,17,6.48,25.11,3.44,6.63,5.87,13.19,6.56,20.12-2.59,8.19-8,15-17.45,16.13-2.37-.15-3.73,2.32-3.24,4.31a2.64,2.64,0,0,0,2.69,2.38c8,2.27,16.59,4.41,24.91,4.29a19.35,19.35,0,0,0,4-.49c6.88,1.09,13.8.38,19-5.15C432.79,220.35,434.57,211.33,433.37,203.33ZM200.73,201A45.65,45.65,0,0,1,192,158.32c4.49-14.4,15.92-25.33,24.63-37.23q4.68-6.41,8.86-13.13a163,163,0,0,1-11.92,24.39c-11.81,20.16-23.24,43.92-9.42,66.13A54.64,54.64,0,0,0,217.35,213,44.89,44.89,0,0,1,200.73,201ZM311.34,82.3A49,49,0,0,0,294,94.37a33,33,0,0,1,11.37-15.29c5.95-4.46,12.86-7.5,19.64-10.46,10.24-4.46,21.28-9.61,28.71-17.94C352.93,71.25,326.59,75.9,311.34,82.3Zm87,117.89a44,44,0,0,0-2.87-9.32c-4.56-10.44-10.81-19.21-9.67-31.2a74.11,74.11,0,0,1,4.09-16.82c.93,14.56,6.93,28.06,8.83,42.44A48.74,48.74,0,0,1,398.31,200.19Zm33.56,11.28c-.72,6.09-3.4,12.37-8.56,16a17.65,17.65,0,0,1-11.69,2.88c5-2.15,9.23-6.14,12.43-10.57,4.61-6.38,3.66-15.51,2.31-22.79-1.49-8-4.42-15.72-6.57-23.61C425.31,185.37,433.48,197.9,431.87,211.47Z"/></g></g></svg>