<svg xmlns="http://www.w3.org/2000/svg" viewBox="0 0 837.94 831.7"><defs><style>.cls-1{fill:#ecebce;}.cls-2{fill:#f4d479;}.cls-3{fill:#89d3e5;}.cls-4{fill:#f6893e;}.cls-5{fill:#7f61aa;}.cls-6{fill:#231f20;}.cls-7{fill:#efd0b2;}.cls-8{fill:#444c5e;}.cls-9{fill:#353d4c;}.cls-10{fill:#434754;}.cls-11{fill:#50c8ea;}.cls-12{fill:#fff;}.cls-13{fill:#d6b19d;}.cls-14{fill:#6d5199;}.cls-15{fill:#eb5848;}</style></defs><title>Shopping90OFF</title><g id="Layer_2" data-name="Layer 2"><g id="BG"><path class="cls-1" d="M483.42,699.68C451.92,824.18,952,639.26,813.71,441.49S818,77.33,787.16,36C713.69-62.42,484,384.52,276.44,136.08S-107,763.18,212.29,659.68,514.92,575.19,483.42,699.68Z"/><path class="cls-2" d="M84.14,664C79.3,648.47,68,637.58,54.8,637.58c-15.12,0-27.8,14.36-31,33.53L6.45,673.17,0,755.91l120.35-21.49-18.8-72.53ZM54.8,643.22c10.43,0,19.45,8.76,23.66,21.41l-48.84,5.79C32.75,654.74,42.85,643.22,54.8,643.22Z"/><path class="cls-3" d="M762.09,632.71,746,629.24c-1.3-26.54-16.45-47.13-34.45-46.41-9,.38-17.12,6-22.87,15.75a55.47,55.47,0,0,0-6.31,17l-13.7-2.95L639.17,714.66l150.24,5.75ZM695.16,602.4c4.4-7.49,10.32-11.76,16.67-12l.62,0c12.92,0,24.19,16.48,25.85,37.23l-48.58-10.46A47.69,47.69,0,0,1,695.16,602.4Z"/><path class="cls-4" d="M323.82,96.84c-5.45-17.45-18.21-29.72-33.05-29.72-17,0-31.33,16.18-35,37.79l-19.52,2.31L229,200.45l135.6-24.22L343.43,94.51ZM290.77,73.47c11.74,0,21.91,9.87,26.65,24.12l-55,6.53C265.92,86.45,277.3,73.47,290.77,73.47Z"/><path class="cls-5" d="M818,41.83c.71-15.17-5.77-28.39-17.37-32.61C787.3,4.37,771.53,13,762.55,28.79l-15.91-3.74L714.46,95.81l112.8,19.65L834,45.59ZM798.8,14.18c9.17,3.34,14.3,14,14,26.43L767.92,30.06C775.69,17.26,788.28,10.35,798.8,14.18Z"/><path class="cls-6" d="M335,465.73a11.35,11.35,0,0,1,2.68-.93,12.58,12.58,0,0,1,2.76-.29,8.2,8.2,0,0,1,2.55.39,37.54,37.54,0,0,0,11.14,1.57q4.5-.21,5.95-2.24a.89.89,0,0,0-.07-1.36,6.48,6.48,0,0,0-2.2-1.3c-1-.4-2.26-.82-3.72-1.25L349.52,459c-1.61-.45-3.24-.93-4.86-1.43a39.73,39.73,0,0,1-4.53-1.67,21.46,21.46,0,0,1-4.23-2.38,15.71,15.71,0,0,1-3.43-3.38,15.18,15.18,0,0,1-2.23-4.42,16.16,16.16,0,0,1-.7-5.41,23.09,23.09,0,0,1,.63-5.5,38.52,38.52,0,0,1,1.91-6.09,40,40,0,0,1,2.95-5.89,32.53,32.53,0,0,1,3.72-5,14,14,0,0,1,1.81-1.8,12,12,0,0,1,2.61-1.67,15.78,15.78,0,0,1,3.38-1.17,17,17,0,0,1,4.07-.41,51.13,51.13,0,0,1,6.81.86,21.47,21.47,0,0,1,6.06,2,10.09,10.09,0,0,1,2.76,1.86,10,10,0,0,1,1.72,2.16,10.4,10.4,0,0,1,1,2.22c.24.73.46,1.43.65,2.11a38.28,38.28,0,0,1,.48,4.16c.11,1.52.17,3.07.19,4.64s0,3.11-.12,4.6a36.74,36.74,0,0,1-.47,3.92,2.81,2.81,0,0,1-3.62,2.59q-10.08-.57-11-6.35a14.82,14.82,0,0,1-.33-2.78c-.05-1.08-.1-2.16-.14-3.24s-.12-2.1-.21-3.08a8,8,0,0,0-.48-2.3c-.24-.56-.55-.83-.93-.82s-.92.44-1.6,1.27a14.92,14.92,0,0,0-1.9,2.52,24.37,24.37,0,0,0-1.78,3.5,22.23,22.23,0,0,0-1.24,4,12.86,12.86,0,0,0-.26,4,9.11,9.11,0,0,0,1.1,3.54,6.07,6.07,0,0,0,2.85,2.53,38.27,38.27,0,0,0,5.33,2.17q2.86.92,5.68,1.74t5.38,1.68a19.38,19.38,0,0,1,4.38,2,7.65,7.65,0,0,1,2.71,2.79A5.51,5.51,0,0,1,374,461a18.76,18.76,0,0,1-1,3.58,13.92,13.92,0,0,1-2.35,3.92,20,20,0,0,1-4.24,3.75,24.67,24.67,0,0,1-6.63,3,27.18,27.18,0,0,1-11,1.13,36.46,36.46,0,0,1-12.61-4q-3.62-1.65-4.1-2.82a2.34,2.34,0,0,1,.69-2.39A13.79,13.79,0,0,1,335,465.73Z"/><path class="cls-6" d="M397.24,450.63a79.79,79.79,0,0,0-8.34,4.29c-.39,2-.7,3.86-.94,5.55s-.46,3.36-.67,5a2.28,2.28,0,0,1-.92,1.73,4.63,4.63,0,0,1-2.41.34l-2.14-.22q-1.17-.14-2.4-.36c-.65-.2-1.2-.37-1.68-.5a2.88,2.88,0,0,1-1.2-.63,2.83,2.83,0,0,1-.77-1.27,7.88,7.88,0,0,1-.29-2.36q.27-5.1,1-12.11t1.82-14.53q1.07-7.51,2.3-14.92t2.6-13.25a9.16,9.16,0,0,1,1.76-3.72,7.42,7.42,0,0,1,4.52-2.26q2.79-.67,5-1c1.5-.22,2.87-.37,4.14-.44s2.45-.11,3.55-.09,2.2,0,3.31,0a4.49,4.49,0,0,1,3.22,1.18,6.11,6.11,0,0,1,1.29,3.05q1,4.89,2.51,11.15t3.35,13q1.81,6.76,3.75,13.53t3.68,12.53a2.32,2.32,0,0,1,0,1.82,3.73,3.73,0,0,1-2.11,1.13c-1.17.34-2.25.62-3.26.84a12.85,12.85,0,0,1-3.21.24,5,5,0,0,1-2.6-.56,5.4,5.4,0,0,1-1.67-2.36c-.56-1.24-1.13-2.62-1.71-4.13s-1.21-3.16-1.88-5Q402,448.48,397.24,450.63Zm-.08-12.55c2-.82,4-1.59,6-2.33q-1.74-5.46-3.4-10.93T396.67,414q-1.26,5.69-2.66,12.54t-2.69,14.17Q394.2,439.31,397.16,438.08Z"/><path class="cls-6" d="M447.53,447.09q-4.23,2.15-8,4.12a13.43,13.43,0,0,1-2.35,1.2,6.37,6.37,0,0,1-1.78.4,5.35,5.35,0,0,1-1.37-.07,9.35,9.35,0,0,1-1.15-.32,23,23,0,0,1-2.52-.91c-.78-.33-1.8-.75-3.07-1.26a7.05,7.05,0,0,1-2.36-1.61,4.8,4.8,0,0,1-1.17-2.76c-.37-1.79-.75-3.92-1.13-6.41s-.76-5.19-1.12-8.1-.7-5.93-1-9.06-.61-6.28-.84-9.42-.42-6.17-.57-9.09-.23-5.62-.27-8.09c.07-1.43.42-2.37,1-2.81a5.65,5.65,0,0,1,3.2-.68,39.26,39.26,0,0,1,4.94.2,24.71,24.71,0,0,1,4.87,1,7.15,7.15,0,0,1,2.83,1.58,3.87,3.87,0,0,1,.61,2.74q-.16,4.43-.14,9.66t.13,10.75c.07,3.68.19,7.32.34,10.95s.32,7.09.51,10.39Q440,438,442.65,437c1.74-.7,3.65-1.43,5.71-2.17a7.41,7.41,0,0,1,2.93-.6,4.06,4.06,0,0,1,2.26,1.13,14,14,0,0,1,2,2.07,17.32,17.32,0,0,1,1.47,2.17c.59.85.85,1.45.78,1.81s-.75.88-2.06,1.55Z"/><path class="cls-6" d="M459.71,384.91q3.29-1.83,7-3.63t7.59-3.48c2.61-1.13,5.25-2.12,7.92-3s4.46-.28,5.76,1.53a13.3,13.3,0,0,1,2.06,2.57c.48.81,1,1.7,1.5,2.66a3.12,3.12,0,0,1,.42,2.43,4.5,4.5,0,0,1-2.23,1.6c-2.6,1.09-5.29,2.22-8.07,3.36s-5.69,2.41-8.74,3.78q-.12,3.31-.05,6.83t0,7.39c1.29-.57,2.6-1.09,3.92-1.57s2.73-1,4.24-1.45a8.23,8.23,0,0,1,3.06-.53,3.76,3.76,0,0,1,2.32,1.22,13.63,13.63,0,0,1,2,2.3c.55.79,1.06,1.6,1.55,2.43.66.92.89,1.61.71,2.05a4.75,4.75,0,0,1-2.05,1.62c-2.55,1.27-5.15,2.54-7.82,3.8s-5.23,2.54-7.67,3.83c.05,1.54.11,3,.17,4.36s.09,2.74.1,4.1q3-1.46,5.76-2.63c1.84-.77,3.86-1.56,6.06-2.34a7.14,7.14,0,0,1,3-.58,3.83,3.83,0,0,1,2.25,1.09,15.94,15.94,0,0,1,2,2.16c.52.7,1.07,1.4,1.67,2.1a2.61,2.61,0,0,1,.53,1.85c-.12.4-.76.89-1.9,1.47q-4.08,2.06-8.25,4.22t-8,4.07a9.1,9.1,0,0,1-4,1.49,8.43,8.43,0,0,1-2.69-.35c-.91-.27-1.78-.56-2.63-.88s-1.85-.73-3-1.27a6.94,6.94,0,0,1-2.42-1.7,6.08,6.08,0,0,1-1.4-2.94l-6.61-46.56Q456.41,386.75,459.71,384.91Z"/><path class="cls-6" d="M357,386a5.7,5.7,0,0,1-1.44.08,13.64,13.64,0,0,1-6.36-1.38,9.27,9.27,0,0,1-3.71-3.92,15.82,15.82,0,0,1-2-5.07,20.6,20.6,0,0,1-.37-5.59,22.49,22.49,0,0,1,1.05-5.44,15.82,15.82,0,0,1,2.27-4.54,16.24,16.24,0,0,1,1.84-1.91,11.36,11.36,0,0,1,2.53-1.68,13.1,13.1,0,0,1,3.45-1.05,18.08,18.08,0,0,1,4.6-.11,32.75,32.75,0,0,1,4.69.92,14.65,14.65,0,0,1,3.72,1.6,10.56,10.56,0,0,1,2.75,2.48,12.2,12.2,0,0,1,1.86,3.6,21.89,21.89,0,0,1,.72,7.68,40.64,40.64,0,0,1-1.68,9.16,54.47,54.47,0,0,1-3.78,9.33,37.51,37.51,0,0,1-5.55,8.12,7.59,7.59,0,0,1-1.6,1.4,3.34,3.34,0,0,1-2.17.32l-2.29-.25a11.46,11.46,0,0,1-2.3-.5,8,8,0,0,1-.81-.36,1.56,1.56,0,0,1-.52-.45.84.84,0,0,1-.13-.61,2.16,2.16,0,0,1,.47-.9,53.27,53.27,0,0,0,6.15-11.1A12.93,12.93,0,0,0,357,386Zm4.34-14.09a26.31,26.31,0,0,0-.16-4.41,8.13,8.13,0,0,0-.92-3,2.28,2.28,0,0,0-1.69-1.23,2.17,2.17,0,0,0-1.67.69,7,7,0,0,0-1.39,2,14.63,14.63,0,0,0-1,2.87,20.9,20.9,0,0,0-.53,3.26,20.18,20.18,0,0,0,.11,2.83,9.66,9.66,0,0,0,.57,2.38A4.51,4.51,0,0,0,355.7,379a2.15,2.15,0,0,0,1.53.62q2.11.12,3.51-2.27A41.57,41.57,0,0,0,361.35,371.92Z"/><path class="cls-6" d="M400.21,349.58a14.5,14.5,0,0,1,2.24,3.25,35.11,35.11,0,0,1,2.44,7.5,43.4,43.4,0,0,1,1,8.54,37.55,37.55,0,0,1-.84,8.5,21.91,21.91,0,0,1-3,7.35A9.75,9.75,0,0,1,398.6,388a17.44,17.44,0,0,1-4.74,1.58,25.71,25.71,0,0,1-3.77.47,18.09,18.09,0,0,1-4-.2,14.08,14.08,0,0,1-2.85-.94,9,9,0,0,1-2.74-1.81,22.47,22.47,0,0,1-3-4.54,30.48,30.48,0,0,1-2.18-5.7,38.52,38.52,0,0,1-1.16-6.4,33.34,33.34,0,0,1,0-6.7,30.59,30.59,0,0,1,1.42-6.56,23.7,23.7,0,0,1,3-6,11.47,11.47,0,0,1,3.49-3.12,11,11,0,0,1,4.27-1.53,31.53,31.53,0,0,1,5.53-.23,14.12,14.12,0,0,1,4.62.93A10.45,10.45,0,0,1,400.21,349.58Zm-11.76,6.13a14.2,14.2,0,0,0-1.73,3.7,30,30,0,0,0-1.16,5.08,34.35,34.35,0,0,0-.36,5.49,35.12,35.12,0,0,0,.51,5.06,23.59,23.59,0,0,0,1.18,4.42,11.29,11.29,0,0,0,1.76,3.16,2.88,2.88,0,0,0,2.15,1.25,2.65,2.65,0,0,0,2-1.05,8.46,8.46,0,0,0,1.55-2.93,21.79,21.79,0,0,0,.93-4.41,30.4,30.4,0,0,0,.13-5.45,48.51,48.51,0,0,0-.46-5.1,43.19,43.19,0,0,0-1-5,16.62,16.62,0,0,0-1.49-4c-.58-1.05-1.22-1.57-1.92-1.58A2.68,2.68,0,0,0,388.45,355.71Z"/><path class="cls-6" d="M437.6,346.11q-1.52,3.3-3.17,7t-3.35,7.64q-1.69,3.93-3.18,7.51t-2.66,6.63q-1.17,3-1.8,5c-.29.54-.58.82-.87.85a4.45,4.45,0,0,1-1.38-.19,5.56,5.56,0,0,1-2.51-1.72c-.53-.71-.6-1.82-.21-3.32s1.13-3.45,2-5.87,1.84-5,3-7.88,2.26-5.78,3.5-8.83,2.45-5.95,3.66-8.7a11.29,11.29,0,0,1-3.73,2.47,10.19,10.19,0,0,1-4.29.75,24.63,24.63,0,0,1,.7,3.21,16.7,16.7,0,0,1,.18,3.3,14.45,14.45,0,0,1-.49,3.17,7.89,7.89,0,0,1-1.31,2.72,7.6,7.6,0,0,1-4.79,2.7c-.72,0-1.48.05-2.27.06a9.15,9.15,0,0,1-2.26-.26,9.31,9.31,0,0,1-1.8-.8,11.23,11.23,0,0,1-1.7-1.2,10.08,10.08,0,0,1-2.48-3.78,16.14,16.14,0,0,1-1.07-4.93,17.71,17.71,0,0,1,.47-5.21,13.15,13.15,0,0,1,2.06-4.63,6.32,6.32,0,0,1,4-2.21,13.93,13.93,0,0,1,3,.1,10.82,10.82,0,0,1,2.42.62c.68.43,1.6,1.08,2.75,2a6,6,0,0,0,4.92,1,10.06,10.06,0,0,0,2.58-1,15,15,0,0,0,2.79-1.88,22.09,22.09,0,0,0,2.68-2.7,18.26,18.26,0,0,0,2.22-3.38q.94-2.1,2.9-.59a6.81,6.81,0,0,1,2.53,2.89,4.51,4.51,0,0,1-.32,3.81Q439.11,342.81,437.6,346.11Zm-24.32-1.53a8,8,0,0,0-.75,1.81,15.12,15.12,0,0,0-.49,2.43,16.9,16.9,0,0,0-.13,2.51,20.23,20.23,0,0,0,1,5.44c.51,1.41,1.14,2.13,1.88,2.16s1.32-.51,1.74-1.7a13.59,13.59,0,0,0,.35-5.26c-.11-1-.25-1.92-.41-2.85a17.1,17.1,0,0,0-.62-2.47,10,10,0,0,0-.73-1.88,1.27,1.27,0,0,0-1-.8C413.85,343.92,413.56,344.12,413.28,344.58Zm34.87,15.25a14.61,14.61,0,0,1,.46,1.87,16.44,16.44,0,0,1,.37,2.89,14.14,14.14,0,0,1-.16,2.91,13.36,13.36,0,0,1-.78,2.8,8.74,8.74,0,0,1-1.47,2.46,7,7,0,0,1-4.52,2.36,16,16,0,0,1-2.16.18,7.41,7.41,0,0,1-2-.22,5,5,0,0,1-2.53-1.37,8.22,8.22,0,0,1-1.77-2.58,11.6,11.6,0,0,1-.89-3.42,16.37,16.37,0,0,1,0-3.83,15.35,15.35,0,0,1,1-3.83,11.75,11.75,0,0,1,2.08-3.42,6,6,0,0,1,1.85-1.34,6.77,6.77,0,0,1,2.14-.7,15.2,15.2,0,0,1,2.6.1,8.81,8.81,0,0,1,2.15.49,5.78,5.78,0,0,1,1.88,1.28,5.18,5.18,0,0,1,1.12,1.7C447.76,358.69,448,359.25,448.15,359.83Zm-7.63-.8a8,8,0,0,0-.88,1.64,13.39,13.39,0,0,0-.66,2.19,12.69,12.69,0,0,0-.29,2.3,17.09,17.09,0,0,0-.07,2.73,13.43,13.43,0,0,0,.31,2.25c.29,1.24.81,1.87,1.55,1.89s1.2-.47,1.69-1.58a13.1,13.1,0,0,0,.86-4.68,14.55,14.55,0,0,0,0-2.48,16.7,16.7,0,0,0-.32-2.35,6.8,6.8,0,0,0-.58-1.74c-.24-.45-.48-.69-.73-.72S440.83,358.61,440.52,359Z"/></g><g id="girls"><path class="cls-7" d="M698.49,467.68,718.64,451s38.82,28.32,43,22.31c5.46-7.81-4.13-18.88-13.88-27.36s-13.84-24.57-24-17.88-35.7,25.23-35.7,25.23Z"/><path class="cls-8" d="M721,429s34.33,25.45,34.65,29.63-7.68,10.56-7.4,11.73,18.29,10.32,23,3S733.81,424,729.73,423.58,721,429,721,429Z"/><path class="cls-7" d="M698.49,467.68,718.64,451s38.82,28.32,43,22.31c5.46-7.81-4.13-18.88-13.88-27.36s-13.84-24.57-24-17.88-35.7,25.23-35.7,25.23Z"/><path class="cls-9" d="M721,429s34.33,25.45,34.65,29.63-7.68,10.56-7.4,11.73,18.29,10.32,23,3S733.81,424,729.73,423.58,721,429,721,429Z"/><path class="cls-7" d="M666.69,418.36l17.66-20.78s44.5,21.73,47.74,14.83c4.21-9-7.48-18.5-18.9-25.36s-18.35-22.51-27.57-13.81-32.06,32.33-32.06,32.33Z"/><path class="cls-9" d="M683,374.7s39.41,19.63,40.46,23.84-6,12.19-5.53,13.33,20.45,7.16,24-1.18-46.7-43.4-50.93-43.08S683,374.7,683,374.7Z"/><path class="cls-9" d="M554.11,336.35s-36,176.48-3.56,194.84S684.32,405.48,684.32,405.48l-15.18-20.94-72.83,64.22L608.79,336Z"/><path class="cls-8" d="M581.54,342.44s-4,191.13,23.74,198.58,109.2-85,109.2-85l-10-16.63s-19.37,7.36-61.39,35.18C654.78,446,660,378.19,647.34,342S581.54,342.44,581.54,342.44Z"/><path class="cls-7" d="M523.49,36.22c-1.13-3.91-11.35-9.2-10.84-11.63s9.45,3.48,10.23,2.59-9.17-10.6-6.87-12.4,10.46,10.74,11.29,9.75-5.54-18.34-2.49-19.62,6.17,16.72,7.8,16.9S530.69.43,534.7,0s3.46,22,4.7,22.28S541.18,11.5,546,11.22s-.48,6.5,0,13.17-1.83,14.74-2.32,15.27A93.1,93.1,0,0,0,543.6,49a27.77,27.77,0,0,1-13.11,3.83c0-3.25,0-5.24,0-5.24S524.64,40.14,523.49,36.22Z"/><path class="cls-7" d="M566.17,173l-17.7-29.38L542.85,46l-12,2.3s-8.38,88-7.44,93.27S544,188,544,188Z"/><path class="cls-10" d="M621.63,111.05c33-4.31,46.18,12.63,50.82,50.18s67.73,26.58,65.2,54.78-56.44,38.78-59.81,85.78-63.14-54.44-83.37-73.55-26.7-96.34-4.5-96.63S588.66,115.35,621.63,111.05Z"/><path class="cls-7" d="M619,124.85c-17.52,5.59-42.71,59.49-18.89,70.8s48.81-12.93,49.54-35.69S636.51,119.27,619,124.85Z"/><path class="cls-10" d="M598.49,147.35c13.73-27.69,27.64-24.16,28-10s24.77,13,29.46,28.29,11.53-41-18.78-45.48S595.12,144.09,598.49,147.35Z"/><polygon class="cls-7" points="612.26 173.76 597.65 202.7 590.34 199.17 581.35 200.74 588.85 234.22 622.38 238.53 629.88 208.43 617.88 209.6 632.5 180.76 612.26 173.76"/><path class="cls-7" d="M742.85,115.75c-4.87,11-34.72,71.4-43.47,79.31-9.74,8.81-25.85,13.51-25.85,13.51l7.3,25.56s31.85-18.71,36.16-25c3.78-5.49,33.28-71.29,39-85.19C751.5,122.2,745.94,119.24,742.85,115.75Z"/><path class="cls-7" d="M765.77,123.45c3.63-2.5,15.93.56,17.15-1.9s-10.43-4-10.49-5.37,15-2.25,14.27-5.49-16.22,1.42-16.24,0,17.16-11.54,15.42-14.9-16.6,9.71-18.12,8.65,16.15-16.83,13-20.16-17.91,16.25-19.13,15.53,5.79-10.53,1.89-14.32-4,5.91-8.94,11.24-8.44,13.94-8.37,14.75a44.54,44.54,0,0,1-3.48,4.57,30,30,0,0,0,8.55,12.9l.75-1S762.14,125.94,765.77,123.45Z"/><path class="cls-11" d="M535.07,187.42c1-3.52,28-20.66,30.54-20.76s24.73,32.51,24.73,32.51-5.06,20.37,13.49,24.68,22.86-15.28,22.86-15.28,49.65-9.11,52.74-7,12.65,32.31,8.71,35-17.8.29-33.72,17.33-2.06,81.86-5,87.05-95.73,9.59-98.64,6.36,6.65-62,4.4-67.27-12.88-21.05-12.13-30.65,16.35-19.38,16.35-27.22S534,191,535.07,187.42Z"/><path class="cls-12" d="M604.26,170.14,625.05,178s-10,13.51-18.83,8.08S604.26,170.14,604.26,170.14Z"/><path class="cls-13" d="M606.84,154.22a13.14,13.14,0,0,1,4.19-1.15c1.59-.06,2.82,1.12,3.86,2.17,2.27,2.3,5.8-1.23,3.53-3.53-3.82-3.88-8-4.27-12.91-2.31-3,1.17-1.67,6,1.33,4.82Z"/><path class="cls-13" d="M627.12,160.07a10,10,0,0,1,4.11,1,6,6,0,0,1,2.23,3.42c1,3,5.88,1.72,4.82-1.33A12.06,12.06,0,0,0,634,157c-1.94-1.41-4.61-1.67-6.92-1.88-3.22-.28-3.19,4.72,0,5Z"/><path class="cls-7" d="M639.49,174c3-4.28,7.65-6,10.41-3.94s2.57,7.28-.42,11.56-7.65,6-10.41,3.94S636.51,178.29,639.49,174Z"/><path class="cls-7" d="M155.71,588.88S105.71,556.09,110,548s15.05-3.61,25.7,2,25.3,3,23.77,14.91,5.34,14,5.34,14Z"/><path class="cls-5" d="M159.72,567.76s-33.9-21.35-37.42-20-5.63,11.19-6.7,11.4-15.42-12.66-11.26-19.83,55.33,16.8,55.52,21.35A44.56,44.56,0,0,1,159.72,567.76Z"/><path class="cls-14" d="M257.49,477.85s28.86,180.06,3.75,188.77S155,590.2,155,590.2l8.28-14s18.41,7.78,59.32,37c-12.55-26.32-22.67-135.67-22.67-135.67Z"/><path class="cls-7" d="M196.22,754.47s-11.26,74.79-20.33,73.7-9.08-16-8-31.22-6.9-31.22,4.72-35.22,10.89-13.06,10.89-13.06Z"/><path class="cls-5" d="M169.53,762.64s-1.63,44.47,1.64,47.1,13.9-.82,14.7.09-3.58,21.87-12.8,21.87-14.7-62.53-10.43-65.25A49.94,49.94,0,0,1,169.53,762.64Z"/><path class="cls-5" d="M211.38,472.4s60,159.37,39.36,184.78-52.1,111.08-52.1,111.08l-21.74-9.8s-.56-76.05,35.8-106.18c-11.06-23.42-33.92-80-40.67-106.19s3.86-74.78,3.86-74.78Z"/><path class="cls-7" d="M289.48,188.11c1.1-3.79,11-8.91,10.5-11.27s-9.15,3.37-9.91,2.51,8.89-10.27,6.66-12-10.13,10.41-10.94,9.44,5.36-17.76,2.41-19-6,16.21-7.55,16.38,1.85-20.72-2-21.12-3.35,21.35-4.55,21.58-1.73-10.45-6.38-10.72.47,6.3,0,12.76,1.78,14.28,2.25,14.79a89.48,89.48,0,0,1,.05,9.07,27.12,27.12,0,0,0,12.71,3.72c0-3.16,0-5.09,0-5.09S288.37,191.9,289.48,188.11Z"/><path class="cls-7" d="M248.13,320.65l17.15-28.46,5.45-94.58,11.57,2.23s8.12,85.24,7.21,90.36-19.87,45-19.87,45Z"/><path class="cls-10" d="M194.4,260.6c-31.94-4.17-44.74,12.24-49.23,48.62S79.55,335,82,362.3s54.68,37.56,57.95,83.1,67.88-69.75,81.5-71.92,28.58-87.93,7.08-88.22S226.35,264.78,194.4,260.6Z"/><path class="cls-7" d="M197,274c17,5.41,41.37,57.63,18.3,68.58S168,330,167.26,308,180,268.57,197,274Z"/><path class="cls-10" d="M216.82,295.77c-13.3-26.82-26.78-23.4-27.09-9.65s-24,12.62-28.55,27.42S150,273.85,179.37,269.47,220.08,292.61,216.82,295.77Z"/><polygon class="cls-7" points="203.48 321.36 217.63 349.4 224.71 345.98 233.43 347.5 226.16 379.94 193.68 384.12 186.41 354.95 198.03 356.08 183.87 328.14 203.48 321.36"/><path class="cls-7" d="M77,265.15c4.72,10.65,33.64,69.18,42.11,76.85,9.44,8.53,25.05,13.09,25.05,13.09L137,379.85s-30.85-18.12-35-24.19c-3.66-5.32-32.24-69.07-37.75-82.53C68.58,271.4,74,268.54,77,265.15Z"/><path class="cls-7" d="M54.76,272.61c-3.52-2.41-15.44.55-16.62-1.83s10.11-3.9,10.17-5.2-14.56-2.18-13.83-5.32,15.71,1.37,15.74-.05S33.59,249,35.27,245.77s16.08,9.41,17.56,8.38-15.64-16.3-12.62-19.53,17.35,15.74,18.53,15-5.61-10.2-1.82-13.87,3.87,5.72,8.66,10.88,8.17,13.51,8.11,14.3a44.39,44.39,0,0,0,3.36,4.42,28.94,28.94,0,0,1-8.28,12.5l-.72-.92S58.27,275,54.76,272.61Z"/><path class="cls-15" d="M278.26,334.6c-1-3.42-27.14-20-29.59-20.12s-24,31.5-24,31.5,4.9,19.73-13.07,23.91-22.14-14.8-22.14-14.8-48.1-8.82-51.09-6.83-12.26,31.3-8.45,33.86,17.25.29,32.68,16.8,2,79.3,4.81,84.33,92.75,9.3,95.56,6.17-6.44-60.05-4.26-65.18,12.47-20.39,11.75-29.69-15.84-18.78-15.84-26.37S279.26,338,278.26,334.6Z"/><path class="cls-12" d="M211.23,317.85l-20.14,7.64s9.66,13.09,18.24,7.83S211.23,317.85,211.23,317.85Z"/><path class="cls-13" d="M210,297.68c-4.81-1.9-8.86-1.52-12.59,2.26-2.26,2.3,1.27,5.84,3.54,3.54a5.78,5.78,0,0,1,3.22-2.07,9.9,9.9,0,0,1,4.5,1.1c3,1.18,4.29-3.65,1.33-4.83Z"/><path class="cls-13" d="M189.08,303.18a14.53,14.53,0,0,0-6.74,1.83,11.14,11.14,0,0,0-4.14,6.07c-1.06,3.05,3.77,4.36,4.82,1.33a5.9,5.9,0,0,1,2.13-3.26,8.72,8.72,0,0,1,3.93-1c3.19-.28,3.22-5.28,0-5Z"/><path class="cls-7" d="M177.09,321.6c-2.89-4.15-7.41-5.85-10.08-3.81s-2.48,7,.41,11.2,7.41,5.85,10.08,3.81S180,325.75,177.09,321.6Z"/></g></g></svg>