<svg xmlns="http://www.w3.org/2000/svg" viewBox="0 0 366.66 737.66"><defs><style>.cls-1{fill:#fff;}.cls-1,.cls-2,.cls-3,.cls-4,.cls-5,.cls-6{fill-rule:evenodd;}.cls-2{fill:#082542;}.cls-3{fill:#ccc;}.cls-4{fill:#1a1a1a;}.cls-5{fill:gray;}.cls-6{fill:#0a0a0a;}</style></defs><title>Asset 1</title><g id="Layer_2" data-name="Layer 2"><g id="Layer_1-2" data-name="Layer 1"><path class="cls-1" d="M116.06,213.88a13.87,13.87,0,0,0,4.65-5.42A153.85,153.85,0,0,0,115,171.88a71.08,71.08,0,0,1-11.65-16.27v3.22A43.72,43.72,0,0,0,97,146c-3.12.35-6.23-.45-9.24-4.51-1.33-2-2.87-4.52-4.83-7.91a9.87,9.87,0,0,0-1.54,5.35,42.39,42.39,0,0,1-3.5-15.85c-4.62-6-6.37-12.74-6.16-20.13l-2.42,4.73a96.21,96.21,0,0,1,2.63-20.55l-4.17,3c2.94-11.2.49-22.29,8.79-33.63,1.12-14.6,7.59-24.85,16.94-32.1C86.83,27.54,82,31.81,78.92,37.24c10.61-23.07,48.2-38.61,77.67-25.1,8.71-5.49,17.11-3,28.28.11-5.57-.25-11.9.17-16.84,2,24.68,3.43,37.66,20.79,44.1,37.1,4.8,13.3,5.5,25.65,2.66,37.24,3.82,5.63,5,11.16,5.92,16.69a13,13,0,0,0-4-5.77,17.74,17.74,0,0,1-3.5,14.77c-.31,3.39-.63,7.28-.87,10.25a11.47,11.47,0,0,1-5.29,6.86c1.37,6.09,4.27,8.86,8.12,9.42a8.59,8.59,0,0,1-8.61-4c2.59,10.22,3.29,17.92,0,25,0-4.06-.21-8.15-3.08-13.05,1.26,10.64-1.16,18.72-6.48,23.13,1.86,14.46,5.08,17.08,9,22.12,1.89,7.67,3.74,15.37,5.63,23Q198,231.16,184.24,245.28q-15.75,8.86-31.43,17.78-23.1-15.54-46.17-31.05c3.12-6,6.27-12.11,9.42-18.13Z"/><path class="cls-2" d="M307.47,640.11c5.5,23.73,2.73,73.75-.21,97.55H42.59c1.72-27.48-1.92-57.3,2.56-80.47,6.72-8,8.68-10,10.57-16.48,40.84-9.8,83.65-18.69,124.49-28.46q63.63,13.92,127.26,27.86Z"/><path class="cls-1" d="M26.91,405.58c-1.15,6.26-1.15,11.3-3.39,18.83-11.94,93,1.71,145.14,13.75,212.59,1.82,9.31,3.92,14.66,7.88,20.19,4.79-3.67,22.89-9.55,31.11-18.2-8.47-24.11,2.66-175,5.53-222.84-6.54-12.15-25.83-20-36.61-26.5C39.09,395,33,400.26,26.91,405.58Z"/><path class="cls-1" d="M298.34,398c1.26,22.22,9.9,42.84,8.22,54.46C281.71,538.09,279,610.57,261.73,636.79c-2.42,4.55-7.25,9.66-8.26,13.3-3.78,9.9,32.86,12.7,53,10.43.14-2.14,2.1-4.27,3.18-5.74,1.33-1.47,3-6.09,2.63-9.42-2.35-31.6,42-114.13,49.7-179.93,2-22.05,2.27-59.43-4.45-87.47-10.5-1.43-17.71-4.06-28.21-5.53-9.62,8.44-21.35,17.15-31,25.59Z"/><path class="cls-3" d="M300.44,397.77c14.87-3.11,29.5-6.93,42.94-13.75,7.77-4.31,15.51-6.27,23.28-9.42-9.59-22.4-12.6-37.1-18.9-55.65-7.11-32.58-9.1-46.79-23.45-73.39-1-12-18.9-23.07-29.54-29.23C269.08,207.37,245.49,200,222,197c-5.15-2.56-10.15-2.94-15.4-4.73-8,26.25-24.85,43.3-51.45,59.5-27.37-7-38.12-20.54-39.13-37.87-4.62.11-8.33,5.57-12.53,8.33-2.35,1.79-5.78,2.45-7,5.36-7,3.29-14.38,10.25-21.35,13.54-15.22,4.48-28,14.63-42.1,25.66-.42,1.57-.88,3.15-1.3,4.69C18.41,302.29,16.2,325.67,11,361.76,6.54,387,4.09,397.7,0,407.57c7.91,4.48,16.45,3.22,28.14,6.41,15.89,5.11,26.46,7.38,46.51,3.36,2.91,32.72-1.64,46,1.37,89-8,41-2,43.5-2.77,77.63-1.68,26.32.88,49.42,3,55,30.59,6.62,40.43,13.09,76.3,11.73,34.09-.81,67.13,1.19,100.91-.63,2.45-4.62,5.53-9,8.26-13.3,20.65-35.39,17.18-81.69,40.11-167.23-1.68-36.58-3.71-39.24-1.4-71.79Z"/><path class="cls-4" d="M300.44,397.77c14.87-3.11,29.5-6.93,42.94-13.75,7.77-4.31,15.51-6.27,23.28-9.42-9.59-22.4-12.6-37.1-18.9-55.65-7.11-32.58-9.1-46.79-23.45-73.39-1-12-18.9-23.07-29.54-29.23C269.08,207.37,245.49,200,222,197c-5.15-2.56-10.15-2.94-15.4-4.73-8,26.25-24.85,43.3-51.45,59.5-27.37-7-38.12-20.54-39.13-37.87-4.62.11-8.33,5.57-12.53,8.33-2.35,1.79-5.78,2.45-7,5.36-7,3.29-14.38,10.25-21.35,13.54-15.22,4.48-28,14.63-42.1,25.66-.42,1.57-.88,3.15-1.3,4.69C18.41,302.29,16.2,325.67,11,361.76,6.54,387,4.09,397.7,0,407.57c7.91,4.48,16.45,3.22,28.14,6.41,15.89,5.11,26.46,7.38,46.51,3.36-5.88-16.84-7.49-27.3-10-44.63,1.16-36.12,21.7-72.73,57.44-113.19,10.57,5.22,20.65,10.26,31.78,13.76a200.54,200.54,0,0,0,42.42-30.42c32.27,24.05,58.94,65,86.2,114.84,2.59,18.62,5.6,31.36,8.79,40.74,2.9.73,7.1-.07,9.17-.67Z"/><path class="cls-4" d="M115,171.88a71.08,71.08,0,0,1-11.65-16.27v3.22A43.72,43.72,0,0,0,97,146a9.53,9.53,0,0,0,3.6-2.73c4.06,8.86,7.63,15.19,11.38,19.95a51,51,0,0,1,3,8.68ZM82.88,133.56a9.87,9.87,0,0,0-1.54,5.35,42.39,42.39,0,0,1-3.5-15.85c-4.62-6-6.37-12.74-6.16-20.13l-2.42,4.73a96.21,96.21,0,0,1,2.63-20.55l-4.17,3c2.94-11.2.49-22.29,8.79-33.63,1.12-14.6,7.59-24.85,16.94-32.1C86.83,27.54,82,31.81,78.92,37.24,86.73,20.23,109.3.73,139.3,5.11c-8.79-5.81-17.19-4.8-18.83-.35C121.27-3.5,140-1,156.59,12.14c8.71-5.49,18.27-4.48,28.28.11-5.57-.25-11.9.17-16.84,2,24.68,3.43,37.66,20.79,44.1,37.1,4.8,13.3,5.5,25.65,2.66,37.24,3.82,5.63,5,11.16,5.92,16.69a13,13,0,0,0-4-5.77,17.74,17.74,0,0,1-3.5,14.77,16.32,16.32,0,0,1-5.25,4c1.4-3.15,2.8-6.26,4.17-9.41-3.26,4.69-6.76,8.92-11.66,10.92a23.07,23.07,0,0,1-2.62,6.19,70.11,70.11,0,0,0-1.09-15.4,149.85,149.85,0,0,0-8.36-28.49c-.21,2.31-.46,4.59-.67,6.86a143.91,143.91,0,0,0-5.91-27c-.67,7.21-3.26,11.62-6.83,14.53,2.7-5.67,1.23-13.06-3.08-21.6-8.61,13.69-18.79,23.52-33,24a18.06,18.06,0,0,0,12.74-7.7c-11.23,7.66-21.94,10.5-31.64,12,11.06-8.58,21.32-18.31,28.56-32.31C136.22,71,120.36,78.47,110.91,87.39c1.51-6,6.09-20,10.26-26.49-11.24,16-21.67,31.15-25.27,40.25a14.83,14.83,0,0,1-.46-4.73,62.8,62.8,0,0,0-3.08,23.14A118.9,118.9,0,0,0,99.05,140c-3.61-.88-6.93-1.3-10-7.6a9.08,9.08,0,0,0,.21,4.9,15.41,15.41,0,0,1-2.83-7.07,6.48,6.48,0,0,0-3.57,3.33Zm124.21-2.14c1.37,6.09,4.27,8.86,8.12,9.42a8.59,8.59,0,0,1-8.61-4c2.59,10.22,3.29,17.92,0,25,0-4.06-.21-8.12-3.08-13.05,1.26,10.64-1.16,18.72-6.48,23.13-1-10.81-1.22-16.38-1.4-21.52,1.3-4.38,2.38-10.36,3.08-19.92,2.42,2,5.25,2,8.33,1Z"/><path class="cls-5" d="M300.44,397.77c-2.31,32.55-.28,35.25,1.4,71.82-13.9,51.84-14.74,71.54-24.19,120.19-3.32,14.77-9,37.84-15.92,47-1,2.48-4.8,7.38-7.53,12-53.9.21-115-6.34-148.82-13.48,36.33-.7,149.91,1.79,158.8-9.41,1.68-7.28-159.18-1.68-184.52-17.71,30.94-8.72,79.9,3.18,89,3.08,16.87-.25,104.82-5.64,77.52-19.46-9.2-2.77-60.41,1.85-92.4-8.16,128.52-7,49.14-52.29,36-192.85,18,57.82,56.31,175,84.28,149.87,2.66-11.76,17.11-72.9,16.38-118.82-10,22.05-15.4,51.76-25.2,72.69,9.55-31.85,12.28-74.13,9.94-124.11-.42-8.82-7.18-29.36-13.23-48.47,6.89,11.27,13.68,23.24,20.54,35.77,2.59,18.62,5.6,31.36,8.79,40.74,2.9.73,7.1-.07,9.17-.67Zm-152.81-13C136.46,451.57,126.84,502.11,119.38,538c25.52-59.33,22.82-63.46,28.25-153.27ZM122.08,259.52c9.87,7,20.58,11.76,31.67,15.61,15.61-8.68,30.42-19.32,42.49-32.27a197.92,197.92,0,0,1-42.38,30.42c-11.13-3.5-21.21-8.54-31.78-13.76Z"/><path class="cls-6" d="M64.64,372.71a381.58,381.58,0,0,1-6.72-56.14c-.52,18.2-.63,36.61,5.08,57.89-17.92-9.31-29.16-30.83-36.58-59.25-2.69,39.62,11.34,64.71,37,79.62-12.49-3.46-25-9.66-37.48-19.91,11,13.05,24,21.56,39.16,25.9a33.19,33.19,0,0,1-3.85,18.41,102.57,102.57,0,0,0,13.37-1.89c-5.88-16.84-7.49-27.3-10-44.63Zm57.44-113.19c10.57,5.22,20.65,10.26,31.78,13.76a197.92,197.92,0,0,0,42.38-30.42,111.6,111.6,0,0,0,21.53-32.41c-13,27.27-37.42,47.29-64,61-16.62-5.11-53.41-25.62-57.26-43.89-7,3.29-14.38,10.25-21.35,13.54-8.82,2.59-16.87,7.11-24.78,12.6a256.94,256.94,0,0,1,25.83-8.19c-17.39,15.3-24.32,27.58-31.95,40,10-13.58,22-27,46.55-39.34-11.34,19-14.56,30.52-16.91,41.2,4.9-14.18,12.71-29.51,27.79-47.71a90.69,90.69,0,0,0,20.41,19.81Zm139.86,62.41c6.89,11.27,13.68,23.24,20.54,35.77,2.59,18.62,5.6,31.36,8.79,40.74,2.9.73,7.1-.07,9.17-.67-2,.39-5.53,1.16-6.86-4.62,9.87-56.87,27.82-60,30.8-102.37-5.64,28.73-17.5,45.64-25.76,69.89-4.48-8.68-8.16-10.32-12-33.07-2.21-21.32-2.42-39.38-.91-51.42-9,11.45-9,39.59-7.42,70.49-2.31-7.59-23.63-51-25.69-59.85.7,7.21,4.79,20.76,9.31,35.11Z"/></g></g></svg>