<svg xmlns="http://www.w3.org/2000/svg" viewBox="0 0 102.69 193.53"><defs><style>.cls-1{fill:#fff;}.cls-1,.cls-2,.cls-3,.cls-4,.cls-5,.cls-6{fill-rule:evenodd;}.cls-2{fill:#082542;}.cls-3{fill:#f60;}.cls-4{fill:#1a1a1a;}.cls-5{fill:#9a3d00;}.cls-6{fill:#0a0a0a;}</style></defs><title>Asset 2</title><g id="Layer_2" data-name="Layer 2"><g id="Layer_1-2" data-name="Layer 1"><path class="cls-1" d="M32.51,59.9a4,4,0,0,0,1.3-1.54A43.09,43.09,0,0,0,32.2,48.14a20,20,0,0,1-3.26-4.58v.91a13.48,13.48,0,0,0-1.78-3.61,2.57,2.57,0,0,1-2.59-1.26c-.39-.56-.81-1.26-1.37-2.2a2.62,2.62,0,0,0-.42,1.5,12.19,12.19,0,0,1-1-4.44,8.4,8.4,0,0,1-1.71-5.64c-.25.46-.46.88-.7,1.33a29.19,29.19,0,0,1,.74-5.77L19,25.22c.8-3.12.14-6.23,2.45-9.38a12,12,0,0,1,4.76-9,8.75,8.75,0,0,0-4.06,3.57C25.06,4,35.59-.4,43.85,3.41c2.45-1.54,4.8-.84,7.91,0a12.2,12.2,0,0,0-4.69.6C54,5,57.61,9.82,59.43,14.37a18,18,0,0,1,.73,10.43,11.37,11.37,0,0,1,1.65,4.69,3.7,3.7,0,0,0-1.12-1.61,4.86,4.86,0,0,1-1,4.13c-.07.94-.18,2-.25,2.87A3.22,3.22,0,0,1,58,36.8c.39,1.72,1.19,2.49,2.28,2.63a2.43,2.43,0,0,1-2.42-1.12c.74,2.87.95,5,0,7A6.84,6.84,0,0,0,57,41.67c.35,3-.31,5.21-1.82,6.47.53,4,1.44,4.76,2.52,6.2.53,2.13,1,4.27,1.58,6.44-2.56,2.62-5.15,5.28-7.7,7.91-2.94,1.64-5.88,3.32-8.79,5-4.34-2.91-8.64-5.78-12.95-8.68.88-1.72,1.79-3.4,2.66-5.08Z"/><path class="cls-2" d="M86.1,179.25c.8,3.47,1,8.93.84,14.28H12a47.6,47.6,0,0,1,.62-9.48c1.89-2.24,2.46-2.8,3-4.62,11.44-2.77,23.41-5.25,34.86-8l35.63,7.8Z"/><path class="cls-1" d="M7.52,113.59a37.36,37.36,0,0,1-.94,5.25c-3.32,26,.49,40.64,3.85,59.54a13.55,13.55,0,0,0,2.2,5.67c1.37-1.05,6.41-2.7,8.72-5.11-2.38-6.76.77-49,1.54-62.41-1.82-3.39-7.21-5.6-10.22-7.42-1.72,1.51-3.43,3-5.15,4.48Z"/><path class="cls-1" d="M83.55,111.46c.34,6.23,2.76,12,2.3,15.26-7,24-7.73,44.27-12.56,51.59-.66,1.29-2,2.73-2.31,3.74-1,2.77,9.2,3.57,14.84,2.91a3.41,3.41,0,0,1,.91-1.61,4.25,4.25,0,0,0,.73-2.63c-.66-8.85,11.73-31.95,13.9-50.4.56-6.16.66-16.62-1.23-24.46-2.94-.42-5-1.16-7.91-1.58-2.69,2.38-6,4.83-8.67,7.18Z"/><path class="cls-3" d="M84.14,111.39a47.54,47.54,0,0,0,12-3.85,60.92,60.92,0,0,1,6.55-2.63c-2.7-6.3-3.54-10.39-5.29-15.61-2-9.1-2.55-13.09-6.58-20.54-.27-3.36-5.28-6.44-8.29-8.19C75.35,58.08,68.74,56,62.19,55.14a32.17,32.17,0,0,0-4.34-1.29C55.61,61.2,50.92,66,43.47,70.51c-7.67-2-10.67-5.78-11-10.61-1.29,0-2.34,1.54-3.5,2.31-.66.53-1.64.7-2,1.51-1.93.91-4,2.87-6,3.81-4.27,1.23-7.84,4.1-11.79,7.18-.11.42-.25.87-.35,1.33-3.75,8.61-4.34,15.15-5.81,25.27C1.82,108.38,1.15,111.39,0,114.12c2.2,1.26,4.62.91,7.88,1.82,4.44,1.43,7.42,2.06,13.05.94.8,9.14-.49,12.88.35,24.92-2.21,11.48-.56,12.18-.77,21.74-.46,7.38.25,13.82.84,15.4,8.57,1.85,11.34,3.67,21.38,3.29,9.53-.21,18.8.35,28.25-.18.7-1.29,1.54-2.52,2.31-3.74,5.81-9.91,4.83-22.86,11.23-46.83-.45-10.22-1-11-.38-20.09Z"/><path class="cls-4" d="M84.14,111.39a47.54,47.54,0,0,0,12-3.85,60.92,60.92,0,0,1,6.55-2.63c-2.7-6.3-3.54-10.39-5.29-15.61-2-9.1-2.55-13.09-6.58-20.54-.27-3.36-5.28-6.44-8.29-8.19C75.35,58.08,68.74,56,62.19,55.14a32.17,32.17,0,0,0-4.34-1.29C55.61,61.2,50.92,66,43.47,70.51c-7.67-2-10.67-5.78-11-10.61-1.29,0-2.34,1.54-3.5,2.31-.66.53-1.64.7-2,1.51-1.93.91-4,2.87-6,3.81-4.27,1.23-7.84,4.1-11.79,7.18-.11.42-.25.87-.35,1.33-3.75,8.61-4.34,15.15-5.81,25.27C1.82,108.38,1.15,111.39,0,114.12c2.2,1.26,4.62.91,7.88,1.82,4.44,1.43,7.42,2.06,13.05.94a58.29,58.29,0,0,1-2.84-12.49c.35-10.15,6.09-20.37,16.1-31.71a60.24,60.24,0,0,0,8.9,3.85A55.74,55.74,0,0,0,55,68C64,74.74,71.47,86.19,79.1,100.15a60.8,60.8,0,0,0,2.49,11.41,5.6,5.6,0,0,0,2.55-.17Z"/><path class="cls-4" d="M32.2,48.14a20,20,0,0,1-3.26-4.58v.91a13.48,13.48,0,0,0-1.78-3.61,2.94,2.94,0,0,0,1-.73,26.93,26.93,0,0,0,3.19,5.56,15.65,15.65,0,0,1,.84,2.45Zm-9-10.74a2.62,2.62,0,0,0-.42,1.5,12.19,12.19,0,0,1-1-4.44,8.4,8.4,0,0,1-1.71-5.64c-.25.46-.46.88-.7,1.33a29.19,29.19,0,0,1,.74-5.77L19,25.22c.8-3.12.14-6.23,2.45-9.38a12,12,0,0,1,4.76-9,8.75,8.75,0,0,0-4.06,3.57,16.28,16.28,0,0,1,16.9-9C36.54-.19,34.19.09,33.74,1.35,34-1,39.23-.26,43.85,3.41c2.45-1.54,5.11-1.26,7.91,0a12.2,12.2,0,0,0-4.69.6C54,5,57.61,9.82,59.43,14.37a18,18,0,0,1,.73,10.43,11.37,11.37,0,0,1,1.65,4.69,3.7,3.7,0,0,0-1.12-1.61,4.86,4.86,0,0,1-1,4.13,4.33,4.33,0,0,1-1.47,1.12c.42-.91.81-1.79,1.19-2.66a7.81,7.81,0,0,1-3.26,3.08,6.54,6.54,0,0,1-.77,1.71,20.34,20.34,0,0,0-.27-4.3,43.81,43.81,0,0,0-2.35-8c-.07.63-.14,1.29-.18,1.92a40.78,40.78,0,0,0-1.68-7.56A5.66,5.66,0,0,1,49,21.44c.74-1.61.32-3.68-.87-6.06C45.74,19.2,42.88,22,38.92,22.1a5.23,5.23,0,0,0,3.57-2.17,20.66,20.66,0,0,1-8.86,3.36,27.41,27.41,0,0,0,8-9.06C38.15,19.9,33.7,22,31.08,24.48A31.18,31.18,0,0,1,34,17.06c-3.15,4.45-6.09,8.72-7.11,11.27a3.8,3.8,0,0,1-.1-1.33,17.47,17.47,0,0,0-.88,6.48,32.34,32.34,0,0,0,1.9,5.74A3.38,3.38,0,0,1,25,37.08,2.21,2.21,0,0,0,25,38.45a4.11,4.11,0,0,1-.8-2,1.79,1.79,0,0,0-1,.91ZM58,36.8c.39,1.72,1.19,2.49,2.28,2.63a2.43,2.43,0,0,1-2.42-1.12c.74,2.87.95,5,0,7A6.84,6.84,0,0,0,57,41.67c.35,3-.31,5.21-1.82,6.47-.28-3-.35-4.58-.38-6a26.86,26.86,0,0,0,.84-5.57A2.33,2.33,0,0,0,58,36.8Z"/><path class="cls-5" d="M84.14,111.39c-.63,9.13-.07,9.87.38,20.12-3.88,14.49-4.13,20-6.75,33.64-1,4.16-2.52,10.6-4.48,13.16-.28.7-1.33,2.1-2.1,3.36-15.09.07-32.2-1.75-41.68-3.78,10.18-.18,42,.52,44.48-2.63.45-2-44.59-.45-51.66-5,8.64-2.41,22.36.91,24.92.88,4.72-.07,29.36-1.58,21.7-5.46-2.56-.77-16.9.52-25.86-2.28,36-2,13.75-14.63,10-54,5.07,16.2,15.78,49,23.63,42,.73-3.29,4.79-20.4,4.58-33.28-2.8,6.19-4.31,14.52-7.07,20.37,2.69-8.93,3.46-20.76,2.8-34.76-.14-2.45-2-8.22-3.71-13.58,1.92,3.15,3.85,6.51,5.74,10a60.8,60.8,0,0,0,2.49,11.41,5.6,5.6,0,0,0,2.55-.17Zm-42.8-3.64c-3.12,18.69-5.82,32.86-7.92,42.91,7.18-16.63,6.41-17.78,7.92-42.91ZM34.19,72.68a35.29,35.29,0,0,0,8.86,4.37A48.76,48.76,0,0,0,55,68a55.74,55.74,0,0,1-11.86,8.51,60.24,60.24,0,0,1-8.9-3.85Z"/><path class="cls-6" d="M18.09,104.39A112.29,112.29,0,0,1,16.2,88.64a54.36,54.36,0,0,0,1.44,16.24c-5-2.63-8.16-8.65-10.22-16.63-.77,11.1,3.15,18.13,10.36,22.33A28.53,28.53,0,0,1,7.28,105a21.54,21.54,0,0,0,11,7.25,9.18,9.18,0,0,1-1.08,5.18,36.26,36.26,0,0,0,3.78-.53,58.29,58.29,0,0,1-2.84-12.49Zm16.1-31.71a60.24,60.24,0,0,0,8.9,3.85A55.74,55.74,0,0,0,55,68,31.88,31.88,0,0,0,61,58.92c-3.65,7.63-10.5,13.27-18,17.08-4.66-1.4-14.95-7.14-16-12.28-1.93.91-4,2.87-6,3.81A23.69,23.69,0,0,0,14.1,71c2.35-.84,4.76-1.64,7.25-2.27a41.06,41.06,0,0,0-9,11.2,33.83,33.83,0,0,1,13.05-11,35.85,35.85,0,0,0-4.76,11.55,43,43,0,0,1,7.81-13.37,25.18,25.18,0,0,0,5.7,5.57ZM73.36,90.14c1.92,3.15,3.85,6.51,5.74,10a60.8,60.8,0,0,0,2.49,11.41,5.6,5.6,0,0,0,2.55-.17c-.56.1-1.54.31-1.93-1.3C85,94.17,90,93.29,90.86,81.43c-1.58,8-4.94,12.77-7.25,19.56-1.26-2.41-2.27-2.87-3.32-9.27A68,68,0,0,1,80,77.33c-2.52,3.22-2.49,11.1-2.07,19.74-.66-2.13-6.61-14.28-7.21-16.76a67.33,67.33,0,0,0,2.63,9.83Z"/></g></g></svg>