<svg xmlns="http://www.w3.org/2000/svg" viewBox="0 0 102.69 193.53"><defs><style>.cls-1{fill:#fff;}.cls-1,.cls-2,.cls-3,.cls-4,.cls-5,.cls-6,.cls-7{fill-rule:evenodd;}.cls-2{fill:#082542;}.cls-3{fill:#033;}.cls-4{fill:#993;}.cls-5{fill:#1a1a1a;}.cls-6{fill:#001a1a;}.cls-7{fill:#575713;}</style></defs><title>Asset 5</title><g id="Layer_2" data-name="Layer 2"><g id="Layer_1-2" data-name="Layer 1"><path class="cls-1" d="M32.51,59.9a3.88,3.88,0,0,0,1.3-1.54A43.09,43.09,0,0,0,32.2,48.14a20.27,20.27,0,0,1-3.26-4.58v.91a13.19,13.19,0,0,0-1.78-3.61,2.57,2.57,0,0,1-2.59-1.26c-.39-.56-.81-1.26-1.37-2.2a2.62,2.62,0,0,0-.42,1.5,12,12,0,0,1-1-4.44,8.36,8.36,0,0,1-1.72-5.64c-.24.46-.45.88-.7,1.33a29.19,29.19,0,0,1,.74-5.77L19,25.22c.8-3.12.14-6.23,2.45-9.38a12,12,0,0,1,4.76-9,8.8,8.8,0,0,0-4.06,3.57C25.06,4,35.6-.4,43.85,3.41c2.46-1.54,4.8-.84,7.91,0a12.15,12.15,0,0,0-4.68.6C54,5,57.61,9.82,59.43,14.37a18.14,18.14,0,0,1,.74,10.43,11.21,11.21,0,0,1,1.64,4.69,3.61,3.61,0,0,0-1.12-1.61,4.86,4.86,0,0,1-1,4.13c-.07.94-.18,2-.24,2.87A3.3,3.3,0,0,1,58,36.8c.38,1.72,1.18,2.49,2.27,2.63a2.43,2.43,0,0,1-2.42-1.12c.74,2.87.95,5,0,7A6.84,6.84,0,0,0,57,41.67c.35,3-.31,5.21-1.82,6.47.53,4,1.44,4.76,2.53,6.2l1.57,6.44-7.7,7.91c-2.94,1.64-5.88,3.32-8.78,5-4.34-2.91-8.65-5.78-13-8.68.88-1.72,1.79-3.4,2.66-5.08Z"/><path class="cls-2" d="M86.1,179.25c.81,3.47,1,8.93.84,14.28H12a47.57,47.57,0,0,1,.63-9.48c1.88-2.24,2.45-2.8,3-4.62,11.45-2.77,23.41-5.25,34.86-8l35.63,7.8Z"/><path class="cls-1" d="M7.52,113.59a37.36,37.36,0,0,1-.94,5.25c-3.32,26,.49,40.64,3.85,59.54a13.42,13.42,0,0,0,2.21,5.67c1.36-1.05,6.4-2.7,8.71-5.11-2.38-6.76.77-49,1.54-62.41-1.82-3.39-7.21-5.6-10.22-7.42-1.72,1.51-3.43,3-5.15,4.48Z"/><path class="cls-1" d="M83.55,111.46c.35,6.23,2.76,12,2.3,15.26-7,24-7.73,44.27-12.56,51.59-.66,1.29-2,2.73-2.31,3.74-1,2.77,9.2,3.57,14.84,2.91a3.49,3.49,0,0,1,.91-1.61,4.31,4.31,0,0,0,.74-2.63c-.67-8.85,11.72-31.95,13.89-50.4.56-6.16.66-16.62-1.22-24.46-3-.42-5-1.16-7.91-1.58-2.7,2.38-6,4.83-8.68,7.18Z"/><path class="cls-3" d="M84.14,111.39a47.61,47.61,0,0,0,12-3.85,60,60,0,0,1,6.54-2.63c-2.69-6.3-3.53-10.39-5.28-15.61-2-9.1-2.56-13.09-6.58-20.54-.28-3.36-5.29-6.44-8.3-8.19C75.35,58.08,68.74,56,62.19,55.14a31.74,31.74,0,0,0-4.34-1.29C55.61,61.2,50.92,66,43.47,70.51c-7.66-2-10.67-5.78-11-10.61-1.29,0-2.34,1.54-3.5,2.31-.66.53-1.64.7-2,1.51-1.92.91-4,2.87-6,3.81-4.27,1.23-7.84,4.1-11.79,7.18-.1.42-.24.87-.35,1.33-3.74,8.61-4.34,15.15-5.81,25.27C1.82,108.38,1.16,111.39,0,114.12c2.2,1.26,4.62.91,7.88,1.82,4.44,1.43,7.42,2.06,13.05.94.81,9.14-.49,12.88.35,24.92-2.2,11.48-.56,12.18-.77,21.74-.45,7.38.25,13.82.84,15.4,8.57,1.85,11.34,3.67,21.39,3.29,9.52-.21,18.79.35,28.24-.18.7-1.29,1.54-2.52,2.31-3.74,5.81-9.91,4.83-22.86,11.23-46.83-.45-10.22-1-11-.38-20.09Z"/><path class="cls-4" d="M84.14,111.39a47.61,47.61,0,0,0,12-3.85,60,60,0,0,1,6.54-2.63c-2.69-6.3-3.53-10.39-5.28-15.61-2-9.1-2.56-13.09-6.58-20.54-.28-3.36-5.29-6.44-8.3-8.19C75.35,58.08,68.74,56,62.19,55.14a31.74,31.74,0,0,0-4.34-1.29C55.61,61.2,50.92,66,43.47,70.51c-7.66-2-10.67-5.78-11-10.61-1.29,0-2.34,1.54-3.5,2.31-.66.53-1.64.7-2,1.51-1.92.91-4,2.87-6,3.81-4.27,1.23-7.84,4.1-11.79,7.18-.1.42-.24.87-.35,1.33-3.74,8.61-4.34,15.15-5.81,25.27C1.82,108.38,1.16,111.39,0,114.12c2.2,1.26,4.62.91,7.88,1.82,4.44,1.43,7.42,2.06,13.05.94a57.67,57.67,0,0,1-2.83-12.49C18.44,94.24,24.18,84,34.19,72.68a60.7,60.7,0,0,0,8.9,3.85A55.74,55.74,0,0,0,55,68C64,74.74,71.47,86.19,79.1,100.15a60.8,60.8,0,0,0,2.49,11.41,5.6,5.6,0,0,0,2.55-.17Z"/><path class="cls-5" d="M32.2,48.14a20.27,20.27,0,0,1-3.26-4.58v.91a13.19,13.19,0,0,0-1.78-3.61,2.94,2.94,0,0,0,1-.73,26.93,26.93,0,0,0,3.19,5.56,15.65,15.65,0,0,1,.84,2.45Zm-9-10.74a2.62,2.62,0,0,0-.42,1.5,12,12,0,0,1-1-4.44,8.36,8.36,0,0,1-1.72-5.64c-.24.46-.45.88-.7,1.33a29.19,29.19,0,0,1,.74-5.77L19,25.22c.8-3.12.14-6.23,2.45-9.38a12,12,0,0,1,4.76-9,8.8,8.8,0,0,0-4.06,3.57,16.28,16.28,0,0,1,16.9-9C36.54-.19,34.19.09,33.74,1.35,34-1,39.24-.26,43.85,3.41c2.46-1.54,5.12-1.26,7.91,0a12.15,12.15,0,0,0-4.68.6C54,5,57.61,9.82,59.43,14.37a18.14,18.14,0,0,1,.74,10.43,11.21,11.21,0,0,1,1.64,4.69,3.61,3.61,0,0,0-1.12-1.61,4.86,4.86,0,0,1-1,4.13,4.33,4.33,0,0,1-1.47,1.12c.42-.91.81-1.79,1.19-2.66a7.81,7.81,0,0,1-3.26,3.08,6.55,6.55,0,0,1-.76,1.71,20.36,20.36,0,0,0-.28-4.3,43,43,0,0,0-2.35-8c-.07.63-.14,1.29-.18,1.92a40,40,0,0,0-1.68-7.56A5.66,5.66,0,0,1,49,21.44c.74-1.61.32-3.68-.87-6.06C45.75,19.2,42.88,22,38.92,22.1a5.21,5.21,0,0,0,3.57-2.17,20.67,20.67,0,0,1-8.85,3.36,27.38,27.38,0,0,0,8-9.06C38.15,19.9,33.7,22,31.08,24.48A31.18,31.18,0,0,1,34,17.06c-3.15,4.45-6.09,8.72-7.1,11.27A3.55,3.55,0,0,1,26.74,27a17.68,17.68,0,0,0-.88,6.48,32.34,32.34,0,0,0,1.9,5.74A3.38,3.38,0,0,1,25,37.08,2.37,2.37,0,0,0,25,38.45a4.11,4.11,0,0,1-.8-2,1.82,1.82,0,0,0-1,.91ZM58,36.8c.38,1.72,1.18,2.49,2.27,2.63a2.43,2.43,0,0,1-2.42-1.12c.74,2.87.95,5,0,7A6.84,6.84,0,0,0,57,41.67c.35,3-.31,5.21-1.82,6.47-.27-3-.34-4.58-.38-6a26.19,26.19,0,0,0,.84-5.57A2.34,2.34,0,0,0,58,36.8Z"/><path class="cls-6" d="M84.14,111.39c-.63,9.13-.07,9.87.38,20.12-3.88,14.49-4.12,20-6.75,33.64-.94,4.16-2.52,10.6-4.48,13.16-.28.7-1.33,2.1-2.1,3.36-15.09.07-32.2-1.75-41.68-3.78,10.18-.18,42,.52,44.48-2.63.45-2-44.59-.45-51.66-5,8.65-2.41,22.36.91,24.92.88,4.73-.07,29.36-1.58,21.7-5.46-2.55-.77-16.9.52-25.86-2.28,36-2,13.75-14.63,10-54,5.07,16.2,15.79,49,23.63,42,.73-3.29,4.79-20.4,4.58-33.28-2.8,6.19-4.31,14.52-7.07,20.37,2.7-8.93,3.47-20.76,2.8-34.76-.14-2.45-2-8.22-3.71-13.58,1.92,3.15,3.85,6.51,5.74,10a60.8,60.8,0,0,0,2.49,11.41,5.6,5.6,0,0,0,2.55-.17Zm-42.8-3.64c-3.12,18.69-5.82,32.86-7.92,42.91,7.18-16.63,6.41-17.78,7.92-42.91ZM34.19,72.68a35.29,35.29,0,0,0,8.86,4.37A48.76,48.76,0,0,0,55,68a55.74,55.74,0,0,1-11.86,8.51,60.7,60.7,0,0,1-8.9-3.85Z"/><path class="cls-7" d="M18.1,104.39a112.33,112.33,0,0,1-1.9-15.75,55,55,0,0,0,1.44,16.24c-5-2.63-8.15-8.65-10.22-16.63-.77,11.1,3.15,18.13,10.36,22.33A28.53,28.53,0,0,1,7.28,105a21.56,21.56,0,0,0,11,7.25,9.17,9.17,0,0,1-1.09,5.18,35.9,35.9,0,0,0,3.78-.53,57.67,57.67,0,0,1-2.83-12.49ZM34.19,72.68a60.7,60.7,0,0,0,8.9,3.85A55.74,55.74,0,0,0,55,68,31.88,31.88,0,0,0,61,58.92c-3.65,7.63-10.5,13.27-18,17.08C38.4,74.6,28.1,68.86,27,63.72c-1.92.91-4,2.87-6,3.81A23.69,23.69,0,0,0,14.1,71c2.35-.84,4.76-1.64,7.25-2.27a41.26,41.26,0,0,0-9,11.2,33.83,33.83,0,0,1,13.05-11,35.85,35.85,0,0,0-4.76,11.55,43,43,0,0,1,7.81-13.37,25.18,25.18,0,0,0,5.7,5.57ZM73.36,90.14c1.92,3.15,3.85,6.51,5.74,10a60.8,60.8,0,0,0,2.49,11.41,5.6,5.6,0,0,0,2.55-.17c-.56.1-1.54.31-1.92-1.3C85,94.17,90,93.29,90.86,81.43c-1.58,8-4.94,12.77-7.25,19.56-1.26-2.41-2.27-2.87-3.32-9.27A68,68,0,0,1,80,77.33c-2.52,3.22-2.49,11.1-2.07,19.74-.66-2.13-6.61-14.28-7.2-16.76a65.75,65.75,0,0,0,2.62,9.83Z"/></g></g></svg>